<?xml version="1.0" standalone="no"?>
<!DOCTYPE svg PUBLIC "-//W3C//DTD SVG 20010904//EN"
 "http://www.w3.org/TR/2001/REC-SVG-20010904/DTD/svg10.dtd">
<svg version="1.0" xmlns="http://www.w3.org/2000/svg"
 width="1024.000000pt" height="1024.000000pt" viewBox="0 0 1024.000000 1024.000000"
 preserveAspectRatio="xMidYMid meet">

<g transform="translate(0.000000,1024.000000) scale(0.100000,-0.100000)"
fill="#000000" stroke="none">
<path d="M0 5120 l0 -5120 5120 0 5120 0 0 1466 0 1465 -22 -6 c-31 -10 -46
-25 -25 -25 28 0 19 -17 -11 -22 -26 -4 -28 -2 -24 27 3 29 3 29 -13 10 -16
-20 -16 -20 -30 -1 -11 14 -29 20 -65 22 -27 1 -50 -2 -50 -7 0 -5 7 -9 15 -9
8 0 15 -5 15 -11 0 -7 -14 -9 -37 -7 -51 6 -86 -10 -79 -36 3 -12 -2 -25 -12
-32 -25 -19 -34 -17 -27 7 5 16 3 20 -6 17 -9 -3 -13 -15 -11 -31 3 -22 -1
-27 -17 -27 -18 0 -20 -4 -16 -27 11 -51 -13 -1 -45 95 -39 118 -39 129 6 148
48 20 79 23 282 23 l172 1 0 3600 0 3600 -5120 0 -5120 0 0 -5120z m4862 3170
c21 0 38 5 38 11 0 5 4 7 10 4 6 -4 2 -15 -10 -27 -22 -24 -19 -34 7 -23 26
11 135 12 156 3 12 -7 17 -4 17 8 0 14 3 14 15 4 11 -9 22 -10 38 -3 28 12 57
6 57 -13 0 -18 20 -18 48 2 22 15 97 22 109 10 4 -3 -3 -6 -15 -6 -11 0 -24
-5 -28 -12 -4 -6 -3 -8 4 -5 15 10 42 -3 42 -20 0 -8 5 -11 10 -8 14 9 62 -23
55 -35 -4 -6 -15 -10 -26 -10 -11 0 -18 -4 -14 -10 10 -17 85 22 85 45 0 3 -9
9 -21 13 -19 7 -19 9 -4 22 14 11 17 11 21 -7 4 -15 17 -23 45 -27 26 -4 39
-11 39 -22 0 -9 7 -14 18 -12 9 2 16 11 14 20 -2 13 3 15 35 8 20 -5 41 -7 45
-4 13 8 49 -6 43 -17 -4 -5 -19 -9 -35 -9 -16 0 -31 -4 -35 -10 -3 -5 -13 -6
-22 -3 -10 4 -14 2 -9 -5 4 -7 -9 -14 -36 -20 -42 -9 -42 -9 -15 -17 18 -5 35
-2 50 8 12 8 43 18 67 22 25 4 62 16 83 27 42 21 73 17 63 -7 -3 -8 -1 -15 4
-15 5 0 16 -12 25 -27 13 -23 15 -24 10 -5 -7 25 9 29 50 10 27 -12 34 -28 11
-28 -7 0 -19 -7 -26 -15 -10 -12 -9 -15 8 -15 30 0 40 -59 12 -82 -24 -20 -26
-41 -4 -59 14 -12 14 -14 -1 -25 -10 -7 -14 -18 -10 -25 6 -9 1 -10 -19 -7
-30 6 -38 -17 -8 -25 9 -3 4 -5 -13 -6 -20 -1 -26 -4 -17 -10 7 -4 12 -12 11
-17 -1 -5 -1 -15 0 -23 2 -19 31 6 32 28 0 9 6 1 13 -18 10 -28 14 -31 24 -18
13 15 6 47 -12 59 -7 5 -5 8 6 8 16 0 19 17 19 110 0 33 2 35 34 37 28 2 35
-1 35 -15 0 -10 -9 -25 -20 -35 -11 -9 -20 -24 -20 -32 0 -8 -6 -15 -13 -15
-9 0 -13 -11 -12 -32 1 -40 19 -76 29 -59 12 19 33 12 39 -11 3 -13 9 -33 12
-45 6 -17 3 -23 -9 -23 -14 0 -21 11 -17 33 0 4 -4 7 -9 7 -6 0 -10 -9 -10
-20 0 -11 4 -20 9 -20 9 0 27 -38 24 -50 -1 -3 8 -6 20 -7 12 0 16 1 10 4 -26
10 -13 33 17 33 29 0 40 -13 20 -25 -5 -3 -10 -13 -10 -22 0 -11 8 -14 29 -11
23 3 27 1 23 -14 -2 -11 4 -35 14 -54 20 -37 35 -46 27 -15 -3 10 0 22 6 25 7
5 11 -5 11 -28 0 -19 -6 -36 -12 -39 -10 -3 -10 -7 0 -19 9 -12 10 -27 3 -59
-6 -24 -6 -46 -2 -49 5 -3 12 -21 16 -40 4 -19 15 -41 24 -48 15 -12 14 -13
-1 -8 -15 4 -18 -1 -18 -30 0 -19 5 -44 10 -55 6 -11 7 -19 1 -19 -5 0 -11 7
-15 15 -3 8 -12 15 -20 15 -18 0 -28 -81 -11 -95 16 -14 38 -56 31 -62 -2 -3
-15 5 -28 18 -22 23 -24 23 -41 6 -27 -27 -27 -61 1 -65 22 -3 28 -13 15 -25
-3 -4 -12 -2 -20 4 -10 9 -13 5 -13 -20 0 -22 -5 -31 -17 -32 -17 -1 -17 -2 0
-6 20 -5 23 -23 3 -23 -19 0 -9 -37 11 -44 13 -5 13 -9 -2 -32 -19 -29 -13
-38 28 -48 22 -5 27 -3 27 13 0 11 -4 22 -10 26 -15 9 0 35 21 35 11 0 19 7
19 18 1 15 2 15 16 -3 11 -15 12 -21 2 -24 -20 -7 -41 -31 -34 -39 4 -3 11 0
16 8 15 24 21 5 7 -23 -6 -15 -19 -27 -27 -27 -8 -1 1 -6 20 -13 40 -14 51
-42 20 -50 -27 -7 -25 -23 4 -43 15 -9 22 -21 19 -30 -3 -8 -1 -14 4 -14 6 0
15 -10 21 -22 8 -18 11 -19 11 -6 1 9 -3 20 -9 23 -16 10 -12 65 4 65 8 0 16
-7 20 -15 3 -8 1 -15 -5 -15 -6 0 -4 -7 5 -15 8 -8 18 -15 23 -15 5 0 16 -12
26 -27 36 -59 43 -64 71 -54 18 8 25 7 23 -1 -1 -6 4 -13 11 -15 6 -3 12 0 12
6 0 6 7 11 15 11 8 0 15 -7 15 -15 0 -9 7 -18 15 -21 8 -4 15 -12 15 -20 0
-17 14 -18 40 -4 15 8 21 6 30 -11 10 -17 17 -20 51 -14 37 6 53 -5 29 -20 -5
-3 -7 -12 -3 -20 3 -8 0 -15 -6 -15 -6 0 -11 -6 -11 -12 0 -7 14 3 29 22 32
38 53 35 28 -4 -15 -23 -15 -25 1 -29 16 -4 15 -5 -2 -12 -12 -5 -21 -3 -27 6
-7 10 -8 6 -3 -13 4 -21 1 -27 -15 -33 -12 -3 -21 -13 -21 -21 0 -8 -7 -15
-15 -15 -27 -3 -30 -4 -52 -26 -13 -13 -30 -23 -38 -23 -8 0 -15 -4 -15 -10 0
-5 -18 -10 -39 -10 -22 0 -43 -5 -47 -12 -4 -7 -3 -8 5 -4 7 4 20 4 29 0 13
-5 9 -9 -18 -15 -20 -4 -36 -4 -38 2 -5 14 -22 11 -20 -3 2 -7 -6 -13 -17 -14
-58 -3 -65 -5 -65 -19 0 -8 -4 -15 -10 -15 -5 0 -10 5 -10 11 0 6 -7 3 -16 -5
-8 -9 -20 -14 -25 -10 -6 3 -16 0 -24 -6 -8 -7 -27 -10 -42 -7 l-28 5 22 -18
22 -17 -23 -13 c-14 -7 -36 -9 -54 -5 -17 3 -33 2 -36 -4 -10 -16 -131 -50
-155 -44 -12 3 -28 0 -35 -7 -11 -8 -20 -8 -35 -1 -11 6 -33 11 -50 11 -16 0
-32 4 -36 9 -3 6 -17 4 -32 -4 -20 -10 -31 -11 -40 -3 -10 8 -13 6 -13 -5 0
-10 -6 -14 -15 -11 -8 4 -15 1 -15 -4 0 -6 -25 -27 -55 -48 -41 -26 -54 -41
-50 -53 4 -13 0 -17 -16 -17 -30 1 -47 -28 -32 -54 11 -16 10 -21 -7 -30 -11
-6 -20 -7 -20 -2 0 5 -22 7 -49 4 -30 -2 -51 0 -55 7 -4 6 -14 11 -22 11 -8 0
-13 -4 -9 -9 3 -5 1 -12 -5 -16 -6 -3 -25 10 -44 29 -18 20 -41 36 -50 36 -9
0 -19 7 -22 15 -4 8 -12 15 -20 15 -8 0 -14 4 -14 9 0 5 -11 9 -25 9 -14 0
-34 7 -44 16 -10 9 -36 18 -57 19 -27 2 -40 8 -42 20 -2 9 -10 17 -18 17 -8 0
-12 -4 -9 -10 13 -21 -33 -8 -71 20 -26 20 -51 30 -75 30 -41 0 -73 -25 -45
-36 9 -3 16 -17 16 -30 0 -13 5 -24 10 -24 6 0 10 -7 10 -15 0 -8 -4 -15 -10
-15 -5 0 -10 5 -10 10 0 6 -16 10 -35 10 -19 0 -35 5 -35 11 0 5 4 7 10 4 6
-3 7 1 4 9 -3 9 -11 16 -18 16 -6 0 -3 7 7 14 23 18 22 25 -3 19 -11 -3 -20
-9 -20 -14 0 -5 -4 -9 -10 -9 -5 0 -10 7 -10 15 0 12 -4 13 -19 5 -28 -15 -38
-13 -44 10 -4 17 -2 20 13 15 10 -3 21 -2 24 4 10 15 -226 41 -387 41 -53 0
-57 2 -47 20 15 28 13 30 -21 30 -16 0 -28 4 -25 9 4 5 -3 7 -14 4 -11 -3 -27
-2 -36 1 -16 6 -15 8 2 21 17 13 16 14 -16 9 -19 -4 -39 -11 -45 -15 -5 -5
-16 -9 -25 -8 -10 0 -11 2 -2 6 17 7 5 23 -17 23 -10 0 -24 7 -31 15 -7 8 -28
15 -46 15 -24 0 -34 -5 -34 -15 0 -8 -5 -15 -10 -15 -6 0 -10 7 -8 16 2 10 -3
19 -9 21 -7 3 -13 -2 -13 -10 0 -36 -73 -25 -85 12 -5 17 -10 19 -26 11 -15
-8 -23 -7 -35 5 -32 31 -56 39 -70 21 -9 -13 -21 -15 -53 -10 -28 4 -41 3 -41
-5 0 -7 9 -9 26 -5 20 5 25 4 19 -6 -4 -7 -18 -10 -36 -6 -17 3 -29 1 -32 -7
-2 -7 -8 -9 -12 -4 -5 4 0 13 10 20 17 13 17 14 0 21 -11 4 -22 2 -26 -5 -4
-7 -21 -12 -38 -12 -17 0 -31 -3 -31 -6 0 -3 -15 -12 -32 -20 -94 -40 -117
-52 -120 -63 -5 -14 -79 -19 -89 -6 -3 4 -24 -1 -47 -12 -24 -12 -47 -18 -53
-15 -5 4 -33 -8 -62 -26 -64 -41 -73 -49 -81 -77 -5 -15 -18 -25 -37 -29 -19
-4 -29 -12 -29 -24 0 -12 5 -16 15 -13 22 9 19 -18 -5 -39 -11 -9 -27 -14 -35
-11 -11 5 -13 2 -9 -10 4 -9 14 -16 24 -14 9 2 24 -3 33 -11 10 -7 17 -11 17
-8 0 2 17 -1 38 -8 25 -9 38 -20 40 -34 3 -21 22 -30 22 -11 0 6 22 10 49 10
28 0 53 5 56 10 3 6 43 10 88 11 66 1 75 3 47 9 -19 5 -61 11 -93 13 -53 5
-93 17 -55 17 9 0 18 6 21 13 4 10 7 10 18 0 7 -7 27 -13 44 -12 l30 1 -32 10
c-66 21 -22 59 46 40 65 -18 126 -31 130 -26 2 2 -2 11 -10 20 -8 10 -9 15 -4
13 6 -3 27 -13 48 -22 20 -10 37 -21 37 -26 0 -12 43 -22 53 -12 5 5 -3 11
-17 15 -14 3 -26 11 -26 17 0 6 8 8 18 5 17 -6 154 -25 180 -26 6 0 12 -6 12
-14 0 -8 16 -20 36 -28 30 -11 33 -14 19 -24 -9 -7 -14 -18 -13 -25 3 -14 -64
-34 -87 -25 -19 7 -31 4 -27 -8 2 -5 -9 -6 -24 -3 -16 3 -38 -1 -51 -10 -16
-11 -35 -13 -66 -9 -24 4 -71 1 -107 -7 -68 -14 -140 -12 -140 5 0 5 -5 6 -12
2 -8 -5 -4 -13 11 -26 23 -18 23 -18 -32 -18 -30 0 -68 7 -83 15 -36 18 -77
20 -71 3 2 -7 12 -12 21 -12 11 1 14 -2 7 -10 -5 -6 -24 -11 -43 -11 -41 0
-72 -23 -56 -42 8 -10 3 -13 -23 -13 -29 -1 -32 -3 -18 -13 9 -7 21 -22 27
-34 10 -17 9 -22 -6 -28 -16 -6 -16 -7 1 -19 9 -7 17 -21 17 -30 0 -9 -8 -16
-17 -17 -14 0 -13 -2 5 -9 12 -5 22 -16 22 -25 0 -9 9 -15 25 -15 21 0 25 -5
25 -30 0 -20 9 -39 25 -54 14 -13 25 -33 25 -44 0 -24 15 -37 25 -22 10 16 23
12 30 -9 7 -23 33 -35 49 -23 26 19 86 1 86 -27 0 -11 8 -26 18 -33 10 -7 26
-25 36 -40 9 -14 27 -29 39 -32 12 -3 30 -19 40 -36 10 -16 24 -30 31 -30 7 0
24 -10 37 -21 30 -27 72 -45 129 -55 l45 -7 -38 -12 c-37 -10 -38 -11 -15 -22
117 -56 117 -56 243 -50 66 4 149 13 185 22 36 9 88 22 115 28 28 7 55 15 60
19 6 4 27 5 48 4 20 -2 38 2 40 8 3 8 9 7 20 -2 18 -15 37 -8 37 13 0 8 7 11
19 8 10 -3 22 0 25 6 4 6 16 11 28 11 13 0 18 5 15 13 -3 8 0 14 7 14 6 0 36
16 66 35 96 62 129 158 75 219 -16 16 -28 86 -18 102 5 9 39 -9 67 -34 12 -12
27 -17 43 -13 27 7 56 -13 49 -33 -3 -7 0 -13 8 -13 12 0 16 -11 18 -56 0 -16
6 -19 29 -16 26 4 42 22 19 22 -5 0 1 11 14 25 16 17 34 25 57 25 32 1 33 1
14 16 -20 15 -20 15 1 20 27 7 46 47 38 80 -5 19 -3 23 9 18 12 -4 14 -1 10
14 -3 14 8 29 38 56 24 20 48 35 54 33 16 -7 138 12 148 22 6 6 17 5 29 -2 15
-10 20 -9 27 2 6 9 11 10 15 2 4 -6 16 -11 26 -11 11 0 31 -12 45 -27 21 -24
27 -26 35 -13 8 12 9 9 8 -10 -1 -14 12 -45 29 -70 23 -33 30 -53 26 -73 -3
-15 -1 -27 5 -27 5 0 13 -20 16 -44 4 -24 13 -52 20 -62 8 -10 12 -24 9 -30
-2 -7 0 -15 6 -19 6 -3 11 -15 11 -25 0 -10 8 -20 17 -22 10 -2 18 -12 18 -22
0 -11 13 -27 30 -36 17 -10 29 -24 28 -31 -2 -8 11 -23 27 -33 17 -9 28 -21
26 -25 -3 -4 17 -27 44 -50 28 -24 48 -47 45 -51 -3 -4 5 -10 16 -13 13 -4 20
-11 16 -20 -3 -8 4 -22 15 -31 16 -14 19 -25 14 -52 -5 -24 -3 -34 6 -34 9 0
9 -3 -2 -11 -12 -9 -11 -9 5 -4 11 4 28 10 38 13 15 4 18 11 12 36 -3 17 -8
60 -10 95 l-4 63 29 -4 c26 -4 30 -1 36 25 5 25 8 28 16 14 5 -9 27 -20 49
-23 23 -4 50 -16 60 -28 18 -19 18 -21 2 -27 -13 -4 -8 -10 23 -25 22 -11 39
-26 39 -36 0 -22 41 -60 69 -64 38 -4 76 -23 74 -36 -4 -17 43 -12 54 5 6 8
10 5 14 -10 6 -20 11 -22 47 -16 37 6 40 5 35 -15 -5 -18 -2 -22 17 -22 13 0
30 -3 39 -6 11 -4 16 -1 16 10 0 23 29 32 43 12 8 -10 20 -14 35 -10 32 9 27
27 -5 20 l-28 -6 25 21 25 22 -25 -8 c-14 -4 -22 -4 -18 0 4 5 3 14 -3 21 -8
10 -3 17 19 28 17 9 32 20 34 26 1 5 17 11 33 12 17 1 35 6 42 10 6 5 41 10
76 11 36 1 63 5 60 10 -7 11 12 8 24 -4 16 -16 47 -3 39 17 -5 14 -1 15 29 10
28 -6 35 -4 35 9 0 13 6 15 31 10 23 -5 30 -4 24 5 -11 17 44 70 74 71 14 0
21 3 14 5 -15 7 -5 34 12 34 7 0 15 6 18 13 2 7 19 14 37 15 28 2 31 0 21 -12
-8 -10 -9 -16 -1 -21 5 -3 13 2 17 12 9 25 34 42 61 43 13 0 22 6 22 15 0 8 5
15 10 15 6 0 10 11 10 24 0 34 23 38 53 10 25 -23 26 -23 32 -4 8 26 25 26 25
0 0 -11 5 -20 11 -20 7 0 9 -10 7 -24 -4 -19 -1 -22 13 -19 17 5 17 8 4 34
-22 41 -18 59 5 24 14 -21 18 -38 14 -55 -11 -40 -4 -141 12 -190 23 -67 26
-100 9 -100 -20 0 -19 -19 1 -27 14 -5 13 -9 -7 -25 -21 -16 -22 -19 -8 -28 9
-5 15 -20 14 -32 -1 -13 -3 -31 -4 -40 0 -9 -7 -23 -14 -30 -20 -20 -29 -76
-15 -98 10 -16 8 -23 -17 -46 l-30 -27 28 7 c30 7 31 9 -29 -58 -13 -14 -19
-26 -14 -26 6 0 10 -7 10 -15 0 -8 7 -15 17 -15 15 0 15 -1 0 -18 -10 -10 -17
-26 -17 -35 0 -9 -9 -31 -19 -49 -11 -17 -17 -36 -14 -41 3 -4 -5 -20 -18 -33
-13 -14 -24 -31 -24 -37 0 -18 -29 -77 -37 -77 -5 0 -8 -12 -8 -26 0 -17 -6
-28 -20 -31 -11 -3 -20 -12 -20 -19 0 -10 -7 -13 -25 -8 -20 5 -25 2 -25 -13
0 -11 -11 -41 -25 -67 -14 -26 -25 -60 -25 -76 0 -31 -64 -105 -83 -93 -6 4
-8 -2 -5 -15 4 -12 2 -25 -3 -28 -5 -3 -9 4 -9 14 0 11 -6 25 -14 31 -11 10
-16 8 -21 -8 -3 -10 -12 -22 -20 -25 -19 -7 -19 -32 0 -40 23 -9 18 -41 -10
-56 -13 -7 -22 -17 -19 -22 3 -4 -2 -8 -11 -8 -10 0 -13 5 -9 13 5 7 1 7 -10
-2 -15 -13 -19 -13 -26 -1 -5 8 -13 11 -17 6 -4 -5 -2 -11 5 -13 6 -3 12 -9
12 -15 0 -7 -15 -8 -40 -4 -36 6 -41 4 -38 -11 2 -11 -3 -18 -12 -18 -8 0 -14
5 -13 11 1 7 -6 19 -16 28 -16 15 -19 15 -31 1 -11 -13 -10 -19 5 -35 10 -11
14 -20 9 -20 -5 0 -2 -5 6 -10 12 -8 11 -10 -7 -10 -15 0 -23 -6 -23 -16 0
-13 3 -14 15 -4 8 6 19 9 25 5 17 -11 11 -25 -11 -25 -13 0 -19 -5 -16 -13 3
-8 -8 -18 -27 -26 -17 -7 -39 -17 -49 -22 -10 -6 -24 -6 -33 -1 -21 12 -64 3
-64 -13 0 -7 -11 -16 -25 -19 -14 -4 -23 -11 -20 -16 9 -14 -10 -20 -41 -11
-22 6 -32 4 -41 -8 -8 -12 -26 -15 -62 -14 -41 2 -51 -1 -51 -14 0 -11 -4 -13
-12 -6 -18 14 -68 25 -68 15 0 -4 -18 -6 -40 -4 -22 2 -40 0 -40 -4 0 -5 -4
-15 -9 -23 -8 -12 -12 -12 -25 -2 -11 10 -20 10 -28 3 -7 -6 -31 -13 -53 -17
-30 -5 -36 -4 -25 4 8 6 10 11 4 11 -5 0 -15 -5 -21 -11 -9 -9 -13 -2 -19 27
-7 44 -49 95 -70 87 -8 -3 -17 3 -21 13 -3 11 -11 23 -17 27 -7 6 -4 7 7 3 11
-3 17 0 17 10 0 8 -4 12 -10 9 -12 -7 -12 -3 -4 19 3 9 12 16 20 16 8 0 14 6
14 13 0 6 22 28 50 47 36 26 47 40 43 53 -5 17 1 26 72 101 12 11 28 33 37 48
17 25 16 27 -5 42 l-22 15 23 0 c12 1 25 8 28 16 4 8 11 12 17 8 7 -4 8 0 3
12 -9 23 12 37 36 24 12 -7 18 -6 18 1 0 6 -7 13 -15 16 -25 10 -17 34 10 34
23 0 24 2 13 20 -7 11 -21 20 -30 20 -14 0 -16 6 -11 30 5 27 3 30 -21 30 -14
0 -26 5 -26 10 0 6 5 10 10 10 6 0 10 7 10 16 0 8 -5 12 -10 9 -6 -3 -15 6
-20 21 -8 19 -15 25 -30 21 -13 -3 -20 0 -20 9 0 8 5 14 10 14 6 0 10 9 10 20
0 12 -5 17 -13 14 -18 -7 -67 35 -49 42 16 8 15 29 -3 44 -21 17 -8 32 16 19
31 -16 33 -5 4 29 -14 16 -25 42 -25 57 0 18 -6 29 -20 32 -15 4 -20 14 -20
39 0 19 -5 34 -10 34 -6 0 -10 -7 -8 -16 2 -10 -3 -19 -9 -21 -9 -3 -13 6 -13
27 0 41 -24 35 -28 -7 -2 -23 -11 -33 -35 -44 -23 -10 -33 -22 -35 -41 -4 -32
13 -68 32 -68 17 0 29 -27 19 -43 -4 -7 0 -8 11 -4 14 5 17 3 13 -8 -4 -8 12
-44 33 -80 22 -35 40 -67 40 -70 0 -3 9 -15 20 -27 34 -37 73 -201 47 -197
-21 4 -67 -13 -61 -22 3 -5 -2 -6 -10 -3 -8 3 -31 1 -50 -6 -45 -14 -151 5
-178 32 -16 16 -30 19 -86 15 -56 -4 -120 -25 -142 -47 -19 -19 -89 -60 -103
-60 -9 0 -17 -4 -17 -9 0 -14 -118 -31 -188 -27 -49 2 -68 8 -88 27 -19 18
-35 23 -69 21 -28 -1 -49 4 -59 14 -14 14 -18 13 -39 -10 -17 -18 -33 -25 -58
-24 -74 1 -236 -9 -248 -16 -6 -4 -28 -9 -47 -11 -20 -2 -40 -7 -44 -12 -29
-29 3 -115 55 -149 29 -19 231 -37 251 -22 6 4 14 5 18 1 4 -4 9 2 12 13 4 16
13 20 44 20 21 -1 41 -4 45 -8 4 -4 18 -2 32 3 25 9 56 -3 89 -35 6 -6 27 -22
47 -36 21 -14 35 -31 32 -38 -3 -7 -1 -11 3 -9 4 3 41 -2 82 -10 41 -8 92 -17
113 -20 20 -3 43 -13 50 -22 6 -10 18 -20 26 -22 11 -4 10 -8 -3 -22 -10 -9
-15 -21 -11 -26 3 -5 1 -12 -5 -16 -20 -12 -9 -25 21 -25 28 0 30 -2 18 -16
-11 -14 -10 -18 5 -30 12 -8 29 -11 44 -7 22 5 24 3 19 -16 -3 -11 -1 -21 4
-21 5 0 9 -9 9 -20 0 -17 5 -19 31 -13 21 4 34 1 41 -8 7 -11 11 -11 15 -2 3
10 8 9 20 -3 9 -8 22 -13 29 -10 7 3 16 1 20 -5 3 -5 14 -7 24 -4 10 3 33 -3
50 -14 18 -11 38 -17 45 -15 7 3 15 -2 18 -10 4 -9 13 -13 20 -10 8 3 29 -7
47 -22 17 -15 44 -29 58 -30 14 -2 30 -8 35 -13 6 -6 23 -11 38 -11 42 0 79
-17 89 -42 5 -13 9 -17 9 -9 1 11 4 11 17 1 8 -8 14 -25 12 -39 -3 -25 -6 -26
-58 -24 -130 5 -211 23 -229 50 -9 15 -47 33 -69 33 -10 0 -27 9 -36 19 -10
11 -32 23 -50 27 -17 3 -37 11 -45 18 -11 8 -15 8 -19 -3 -4 -11 -6 -11 -13 0
-6 10 -11 11 -16 3 -11 -16 -50 -26 -57 -15 -4 6 -12 8 -19 6 -7 -2 -28 -6
-47 -8 -43 -6 -92 -27 -103 -45 -5 -7 -17 -10 -28 -7 -14 5 -19 2 -19 -14 0
-11 -4 -23 -10 -26 -5 -3 -10 1 -10 9 0 9 -5 16 -10 16 -7 0 -7 -6 0 -19 20
-39 12 -79 -20 -98 -16 -9 -30 -25 -30 -35 0 -19 -15 -24 -25 -8 -3 5 -12 7
-19 4 -8 -3 -17 -1 -21 5 -4 7 -12 8 -24 1 -16 -8 -18 -5 -17 30 0 28 -6 46
-22 63 l-23 25 23 16 23 16 -27 27 c-23 22 -29 24 -42 13 -21 -17 -20 -40 2
-40 16 -1 16 -1 -1 -11 -12 -7 -17 -20 -15 -36 2 -21 -2 -27 -19 -28 -12 -1
-31 -12 -41 -25 -16 -20 -22 -22 -35 -12 -12 10 -16 10 -20 0 -4 -10 -8 -10
-16 2 -8 12 -11 12 -17 -3 -6 -17 -8 -16 -21 3 -16 23 -33 27 -33 7 0 -7 -8
-19 -18 -27 -52 -43 -51 -43 -67 -27 -8 9 -15 20 -15 26 0 6 -4 11 -10 11 -5
0 -10 -7 -10 -15 0 -8 -5 -15 -12 -15 -23 0 -78 24 -78 35 0 6 -9 18 -19 27
-17 14 -22 14 -39 2 -18 -13 -22 -12 -30 3 -9 15 -17 14 -93 -17 -123 -48
-246 -58 -256 -19 -6 23 -16 24 -33 4 -13 -15 -65 -16 -89 -1 -7 5 -26 -3 -46
-18 -18 -14 -38 -26 -44 -26 -20 0 -11 20 14 32 14 6 25 17 25 25 0 14 -16 18
-22 5 -4 -9 -71 -42 -76 -37 -11 10 12 44 31 47 14 2 23 11 25 26 2 12 8 22
13 22 6 0 8 -10 5 -22 l-6 -23 11 22 c8 15 21 23 37 23 15 0 38 14 60 37 l34
37 13 -30 c12 -26 20 -19 16 13 -1 8 9 13 26 13 21 0 24 3 15 12 -17 17 -80
13 -101 -6 -10 -9 -25 -16 -34 -16 -9 0 -19 -5 -22 -10 -4 -6 -16 -8 -28 -4
-22 6 -22 6 -2 -10 20 -15 20 -15 -1 -16 -12 0 -24 6 -27 13 -3 8 -14 13 -26
12 -26 -2 -63 -35 -57 -51 3 -7 -2 -15 -10 -18 -9 -3 -12 -10 -9 -16 3 -6 -2
-13 -12 -17 -10 -4 -23 -13 -29 -21 -13 -18 -35 -7 -28 12 3 8 16 17 30 20 32
8 31 30 -1 24 -28 -6 -27 -6 -19 16 3 8 11 13 17 10 7 -2 13 6 13 20 l2 25
-29 -21 c-15 -12 -26 -25 -23 -30 3 -4 0 -8 -5 -8 -15 0 -14 -27 1 -32 8 -3 5
-11 -10 -23 -12 -11 -22 -28 -22 -38 0 -13 -5 -17 -16 -13 -15 6 -53 -27 -54
-46 0 -5 -10 -18 -21 -29 -17 -17 -19 -23 -8 -30 11 -8 11 -11 -3 -20 -12 -6
-18 -22 -18 -44 0 -39 -15 -47 -23 -14 -5 18 -11 20 -34 15 -23 -6 -26 -5 -15
5 17 18 15 49 -3 49 -8 0 -15 -6 -15 -14 0 -8 -11 -24 -25 -34 -16 -13 -22
-23 -15 -27 7 -4 9 -19 5 -36 -6 -25 -4 -28 11 -22 16 6 17 5 4 -9 -14 -15
-16 -15 -24 3 -5 10 -16 18 -24 17 -10 -2 -15 10 -16 47 -2 28 -6 60 -11 72
-7 21 -5 23 24 17 19 -4 31 -2 31 4 0 5 -9 8 -20 5 -14 -4 -20 0 -20 11 0 9
-11 21 -24 26 -29 11 -40 26 -26 35 5 3 10 12 10 18 0 7 -4 6 -10 -3 -9 -13
-11 -13 -20 0 -23 36 9 43 34 8 19 -26 35 -15 18 12 -7 11 -12 26 -12 34 0 19
-27 24 -72 13 -43 -11 -58 -39 -34 -66 9 -10 16 -23 16 -29 0 -7 5 -12 12 -12
6 0 1 -11 -12 -25 -23 -24 -19 -30 17 -26 15 2 7 -26 -15 -52 -18 -20 -25 -64
-11 -72 5 -4 9 -14 9 -24 0 -10 7 -32 15 -47 8 -16 15 -23 15 -16 0 23 18 12
23 -14 3 -18 -2 -33 -14 -45 -25 -25 -24 -31 6 -53 21 -16 23 -21 10 -30 -15
-11 -27 -60 -18 -70 3 -3 14 -1 24 4 24 13 35 -5 12 -19 -20 -11 -14 -14 32
-12 17 0 23 -2 15 -5 -39 -14 -59 -28 -53 -37 3 -5 0 -13 -7 -17 -7 -4 -9 -13
-6 -19 10 -16 26 -14 26 4 0 20 29 19 37 -1 3 -8 25 -24 48 -35 34 -16 65 -51
65 -74 0 -3 -25 -4 -55 -4 -30 1 -55 6 -55 11 0 18 -44 27 -60 11 -11 -11 -12
-17 -3 -20 7 -2 9 -11 6 -19 -7 -19 -23 -18 -23 1 0 8 -4 15 -10 15 -5 0 -9 6
-7 13 1 7 -7 11 -21 10 -16 -2 -25 4 -32 21 -4 13 -16 26 -24 29 -9 4 -16 14
-16 23 0 10 -3 14 -7 11 -11 -11 -33 14 -33 38 0 13 -7 25 -15 29 -19 7 -19
36 0 36 8 0 15 4 15 9 0 5 -9 7 -20 4 -12 -3 -20 0 -20 7 0 7 -8 10 -20 7 -25
-6 -45 17 -34 40 13 29 12 53 -2 53 -7 0 -30 16 -51 36 -21 20 -48 36 -61 36
-12 0 -27 9 -32 19 -6 10 -19 21 -31 24 -16 6 -20 13 -17 35 3 18 0 27 -6 23
-5 -4 -7 0 -3 9 7 19 -11 38 -35 38 -10 0 -18 7 -18 15 0 8 -9 20 -20 27 -14
9 -20 24 -20 50 0 20 -6 38 -12 40 -7 3 -12 18 -10 34 1 22 -5 37 -23 52 -18
15 -25 32 -25 56 0 19 -5 38 -11 42 -6 3 -8 16 -5 28 4 16 -2 29 -19 44 -14
12 -25 28 -25 37 0 8 -10 24 -22 35 -19 18 -20 22 -8 30 15 9 16 9 -35 25 -8
2 -15 9 -15 15 0 7 8 9 20 5 15 -5 21 0 26 22 3 15 7 34 10 41 2 6 -1 12 -6
12 -6 0 -10 9 -10 20 0 11 -12 26 -29 34 -30 16 -49 48 -32 54 13 4 15 42 2
42 -5 0 -12 -8 -14 -17 -3 -11 -5 -7 -6 10 0 16 -6 37 -11 47 -7 13 -7 21 0
25 16 10 11 45 -10 72 -11 14 -17 29 -14 34 8 14 -6 50 -17 44 -5 -4 -9 2 -9
11 0 10 -8 26 -17 36 -11 13 -14 22 -7 26 6 4 16 22 22 41 10 29 9 37 -7 59
-17 24 -18 28 -3 52 9 14 21 28 27 32 6 4 1 19 -13 37 -12 17 -22 34 -22 38 0
4 -6 19 -13 33 -19 36 -28 88 -17 95 5 3 7 11 4 18 -2 7 4 22 16 32 24 21 27
50 5 41 -11 -4 -15 2 -15 25 0 17 -9 44 -21 60 -29 41 -44 100 -28 109 9 6 7
18 -9 49 -26 49 -26 46 -7 65 13 13 13 15 -5 21 -14 4 -20 15 -20 36 0 16 -5
29 -10 29 -7 0 -7 6 0 19 6 12 6 22 1 25 -10 7 -8 96 3 114 4 8 1 12 -11 12
-14 0 -15 2 -4 9 12 7 10 14 -8 36 -11 15 -21 34 -21 42 0 8 -7 21 -15 29 -10
10 -12 28 -8 63 3 27 1 51 -4 54 -12 8 -6 225 8 287 5 25 10 59 9 75 -1 52 8
144 15 154 3 6 1 20 -6 32 -6 12 -7 19 -1 15 6 -4 10 14 9 47 0 35 3 51 11 50
15 -4 15 2 1 25 -9 15 -7 31 10 76 12 32 19 67 16 77 -4 11 2 48 13 82 11 34
23 85 27 112 4 28 11 52 15 55 10 6 16 97 7 106 -4 4 -2 13 4 20 6 8 9 20 6
28 -3 7 -1 18 5 24 5 5 11 29 12 53 1 23 8 45 14 47 7 2 12 19 12 37 0 43 17
88 30 80 5 -3 10 -1 10 4 0 6 -5 11 -12 11 -9 0 -9 3 -1 11 6 6 9 18 6 26 -3
8 4 21 16 29 11 8 21 26 21 39 0 29 27 46 55 35 18 -7 17 -9 -13 -20 -35 -13
-38 -33 -6 -38 47 -7 64 -13 59 -21 -3 -5 -14 -7 -25 -4 -10 3 -26 -2 -35 -11
-15 -15 -13 -16 29 -16 38 0 45 3 49 23 3 16 5 13 6 -10 1 -33 40 -83 65 -83
20 0 42 48 28 62 -9 9 -12 8 -12 -7 0 -15 -3 -16 -12 -7 -10 10 -10 15 2 22 8
5 23 10 32 10 9 0 20 5 23 10 3 6 -1 10 -9 10 -8 0 -20 9 -26 19 -12 24 -13
42 -1 22 5 -7 14 -10 21 -6 8 5 4 13 -13 27 -21 17 -25 27 -21 57 2 20 2 30
-2 24 -9 -20 -24 -15 -24 7 0 21 -15 27 -25 9 -4 -6 -13 -8 -21 -5 -8 3 -14
-1 -14 -9 0 -8 -4 -15 -10 -15 -5 0 -8 10 -6 23 2 13 10 21 20 20 10 0 15 4
13 10 -2 7 -8 23 -12 37 l-7 25 17 -22 c17 -25 37 -31 33 -11 -2 7 7 14 20 16
12 2 22 8 22 13 0 5 11 9 25 9 16 0 25 -6 25 -15 0 -8 5 -15 10 -15 6 0 10 7
10 15 0 8 5 14 11 13 6 -2 14 3 16 10 3 9 -3 12 -18 11 -45 -4 -69 1 -69 15 0
7 -10 13 -22 12 -16 -1 -23 -7 -23 -21 0 -11 -7 -21 -16 -23 -15 -3 -18 18
-10 86 2 17 21 15 21 -2 0 -22 14 -27 44 -13 26 12 37 31 12 21 -9 -4 -13 3
-13 21 0 19 2 23 8 14 7 -11 11 -12 17 -1 5 7 17 10 28 7 19 -6 19 -6 0 9 -11
9 -23 16 -28 16 -4 0 -8 5 -8 10 0 6 6 10 13 10 25 0 66 46 61 67 -3 11 -1 24
5 27 6 4 11 0 11 -8 0 -20 16 -21 24 -1 3 8 0 15 -6 15 -6 0 -1 12 13 26 16
18 20 28 12 31 -16 6 -17 33 -2 33 6 0 9 6 7 12 -5 14 2 23 47 69 27 28 28 30
8 24 -28 -8 -29 -1 -3 32 11 14 20 22 20 17 0 -5 4 -3 9 5 5 7 6 22 4 32 -4
15 -9 12 -30 -19 -14 -20 -34 -44 -45 -53 -13 -10 -19 -23 -15 -33 6 -14 3
-15 -15 -5 -20 11 -20 13 -5 24 9 7 17 18 17 25 0 6 9 23 20 37 11 14 20 33
20 42 0 10 14 32 32 50 17 18 25 31 17 29 -9 -2 -13 4 -11 20 2 13 -3 25 -12
28 -9 3 -16 10 -16 15 0 4 6 6 13 4 15 -6 28 4 45 33 10 18 10 22 -2 22 -7 0
-19 -7 -26 -15 -18 -22 -32 -18 -20 6 6 11 21 24 33 29 12 5 17 9 10 9 -6 1
-11 10 -10 22 1 16 6 19 25 14 21 -5 23 -3 17 12 -15 35 -17 63 -6 63 6 0 11
-7 11 -15 0 -8 5 -15 10 -15 6 0 10 5 10 10 0 6 6 10 14 10 8 0 18 5 22 12 5
8 -2 9 -24 5 -38 -8 -50 7 -26 34 15 17 19 18 26 4 5 -8 16 -15 25 -15 11 0
13 3 5 13 -5 6 -12 21 -14 32 -1 11 -7 23 -13 28 -6 4 -5 10 4 16 15 10 5 35
-10 26 -5 -4 -9 -1 -9 5 0 6 -4 8 -10 5 -5 -3 -17 -2 -26 3 -14 8 -14 10 0 21
9 8 16 11 16 8 0 -3 27 21 60 54 33 33 58 64 55 70 -4 5 -11 7 -16 4 -5 -4 -9
-2 -9 4 0 12 28 41 40 41 5 0 11 9 15 19 3 11 12 18 20 15 7 -3 16 -1 20 5 3
6 23 11 43 11 26 0 41 6 49 19 7 11 22 21 34 23 12 2 25 9 27 17 3 10 0 12
-12 8 -10 -4 -15 -3 -11 3 4 6 21 8 40 4 28 -5 34 -3 40 16 4 12 12 19 20 16
7 -2 16 2 19 10 7 19 26 18 26 -1 0 -8 4 -15 9 -15 17 0 23 21 10 36 -16 20
-4 30 17 14 13 -11 17 -11 24 0 5 8 15 10 26 6 15 -6 17 -5 7 5 -7 7 -13 20
-13 28 1 14 2 14 13 0 20 -26 44 -30 50 -8 4 13 15 19 39 21 18 0 46 2 62 2
16 1 31 7 33 13 3 8 14 9 35 2 34 -9 48 -5 48 17 0 8 10 14 24 14 13 0 31 3
40 6 9 3 16 1 16 -5 0 -6 -7 -11 -15 -11 -9 0 -12 -6 -9 -15 11 -27 44 -10 47
24 1 21 5 22 52 16 27 -4 55 -14 62 -22 10 -13 15 -13 27 -4 10 8 16 9 21 1 3
-6 11 -7 17 -4 6 4 14 1 18 -6 6 -9 11 -7 19 9 9 17 17 20 39 14 15 -3 32 -12
39 -19 10 -9 22 -10 49 -2 21 5 48 8 60 5 13 -2 24 0 24 6 0 9 30 6 63 -8 12
-5 17 -3 17 8 0 9 14 20 33 26 46 14 191 26 184 14 -3 -5 10 -9 29 -9 24 0 34
5 34 15 0 12 3 12 12 3 7 -7 29 -12 50 -12z m-1167 -70 c-3 -5 -11 -10 -16
-10 -6 0 -7 5 -4 10 3 6 11 10 16 10 6 0 7 -4 4 -10z m1962 -6 c-3 -3 -12 -4
-19 -1 -8 3 -5 6 6 6 11 1 17 -2 13 -5z m343 -194 c0 -10 36 -50 45 -50 3 0 5
7 5 15 0 8 5 15 11 15 5 0 7 -5 4 -10 -4 -6 -1 -18 6 -26 10 -12 9 -16 -9 -21
-22 -5 -38 -36 -27 -53 3 -5 2 -10 -4 -10 -5 0 -13 5 -16 10 -4 6 -10 8 -15 5
-5 -3 -8 3 -7 14 0 11 5 17 10 14 6 -4 7 10 2 33 -9 49 -12 54 -36 54 -10 0
-19 5 -19 10 0 6 11 10 25 10 14 0 25 -4 25 -10z m180 -11 c0 -6 -4 -7 -10 -4
-5 3 -10 11 -10 16 0 6 5 7 10 4 6 -3 10 -11 10 -16z m70 -50 c0 -5 -7 -9 -15
-9 -15 0 -20 12 -9 23 8 8 24 -1 24 -14z m-139 -22 c-13 -13 -26 -3 -16 12 3
6 11 8 17 5 6 -4 6 -10 -1 -17z m9 -70 c0 -5 -4 -5 -10 -2 -5 3 -10 -1 -10 -9
0 -8 6 -16 13 -19 6 -2 2 -2 -10 0 -19 3 -23 -1 -23 -22 0 -15 -4 -24 -10 -20
-5 3 -7 12 -4 19 3 8 0 17 -6 21 -8 5 -3 17 16 36 20 21 30 26 36 17 4 -7 8
-17 8 -21z m-135 -17 c3 -5 -1 -10 -9 -10 -9 0 -16 5 -16 10 0 6 4 10 9 10 6
0 13 -4 16 -10z m55 -65 c0 -8 -4 -15 -10 -15 -5 0 -10 7 -10 15 0 8 5 15 10
15 6 0 10 -7 10 -15z m95 -86 c0 -24 -40 -17 -43 9 -2 12 -8 22 -13 22 -5 0
-9 5 -9 11 0 6 14 3 33 -8 17 -11 32 -26 32 -34z m-3057 25 c14 -4 22 -14 22
-28 l-1 -21 -17 21 c-10 11 -24 23 -32 27 -20 7 0 8 28 1z m3147 -34 c3 -5 1
-10 -4 -10 -6 0 -11 5 -11 10 0 6 2 10 4 10 3 0 8 -4 11 -10z m-135 -14 c0 -3
-4 -8 -10 -11 -5 -3 -10 -1 -10 4 0 6 5 11 10 11 6 0 10 -2 10 -4z m70 -16 c0
-5 -4 -10 -10 -10 -5 0 -10 5 -10 10 0 6 5 10 10 10 6 0 10 -4 10 -10z m-16
-41 c-3 -5 -10 -7 -15 -3 -5 3 -7 10 -3 15 3 5 10 7 15 3 5 -3 7 -10 3 -15z
m-3184 -219 c0 -5 -5 -10 -11 -10 -5 0 -7 5 -4 10 3 6 8 10 11 10 2 0 4 -4 4
-10z m3277 -72 c-3 -8 -6 -5 -6 6 -1 11 2 17 5 13 3 -3 4 -12 1 -19z m-77
-164 c0 -8 -5 -12 -10 -9 -6 4 -8 11 -5 16 9 14 15 11 15 -7z m30 -9 c0 -8 -4
-15 -10 -15 -5 0 -10 7 -10 15 0 8 5 15 10 15 6 0 10 -7 10 -15z m-3270 -145
c0 -5 -5 -10 -11 -10 -5 0 -7 5 -4 10 3 6 8 10 11 10 2 0 4 -4 4 -10z m3210
-50 c-6 -11 -15 -20 -20 -20 -6 0 -10 9 -10 20 0 13 7 20 20 20 18 0 19 -3 10
-20z m0 -50 c0 -5 -9 -10 -20 -10 -11 0 -20 5 -20 10 0 6 9 10 20 10 11 0 20
-4 20 -10z m87 -196 c-3 -3 -12 -4 -19 -1 -8 3 -5 6 6 6 11 1 17 -2 13 -5z
m-3449 -275 c1 -26 -4 -39 -13 -39 -17 0 -27 27 -14 36 7 4 2 15 -10 28 l-21
23 29 -5 c26 -4 29 -8 29 -43z m932 -195 c0 -2 -14 -11 -31 -20 -23 -11 -34
-13 -42 -5 -8 8 -5 11 12 11 12 0 20 4 17 9 -7 11 14 20 32 13 6 -2 12 -6 12
-8z m-205 -24 c3 -5 -1 -10 -9 -10 -9 0 -16 5 -16 10 0 6 4 10 9 10 6 0 13 -4
16 -10z m70 -20 c-27 -12 -35 -12 -35 0 0 6 12 10 28 9 24 0 25 -1 7 -9z m165
6 c0 -3 -4 -8 -10 -11 -5 -3 -10 -1 -10 4 0 6 5 11 10 11 6 0 10 -2 10 -4z
m-640 -106 c0 -5 -2 -10 -4 -10 -3 0 -8 5 -11 10 -3 6 -1 10 4 10 6 0 11 -4
11 -10z m-1230 -30 c25 -8 47 -27 80 -71 25 -33 50 -65 55 -72 6 -7 21 -28 34
-47 30 -44 97 -110 113 -110 6 0 9 -3 6 -6 -3 -3 7 -19 22 -36 16 -17 29 -38
30 -47 4 -39 6 -338 2 -353 -2 -9 -16 -21 -31 -27 -14 -5 -48 -30 -76 -55 -27
-25 -54 -46 -59 -46 -5 0 -6 -13 -3 -29 3 -16 1 -33 -6 -40 -9 -10 -8 -15 6
-23 17 -9 17 -11 2 -28 -16 -18 -16 -19 4 -32 12 -7 21 -20 21 -29 0 -9 9 -24
20 -34 20 -18 21 -18 49 9 16 16 37 26 48 24 17 -3 18 -15 18 -158 -1 -120 -4
-162 -16 -186 -9 -16 -14 -42 -12 -56 2 -14 -3 -31 -12 -38 -13 -11 -13 -14 0
-27 10 -9 15 -34 15 -68 0 -30 7 -103 15 -162 8 -59 21 -171 29 -248 19 -182
16 -190 -72 -189 l-62 1 -65 66 c-77 80 -92 119 -79 204 12 71 2 126 -31 169
-14 18 -25 37 -25 42 0 6 -12 43 -26 84 -34 99 -49 162 -68 294 -21 142 -44
247 -90 404 -45 155 -66 255 -66 316 0 58 30 256 41 268 17 20 29 -52 33 -197
2 -126 7 -160 23 -198 24 -53 38 -65 58 -49 13 11 20 41 29 135 2 22 13 76 25
120 11 44 21 86 21 92 0 7 14 35 30 62 30 47 30 51 16 84 -26 63 -81 113 -151
138 -35 12 -67 29 -70 37 -8 22 22 75 58 100 35 24 64 27 117 12z m2723 -27
c-7 -2 -19 -2 -25 0 -7 3 -2 5 12 5 14 0 19 -2 13 -5z m-1633 -113 c0 -5 -9
-10 -21 -10 -11 0 -17 5 -14 10 3 6 13 10 21 10 8 0 14 -4 14 -10z m1815 -10
c3 -6 -1 -7 -9 -4 -18 7 -21 14 -7 14 6 0 13 -4 16 -10z m-1755 -4 c0 -2 -7
-6 -15 -10 -8 -3 -15 -1 -15 4 0 6 7 10 15 10 8 0 15 -2 15 -4z m-75 -16 c-3
-5 -13 -10 -21 -10 -8 0 -14 5 -14 10 0 6 9 10 21 10 11 0 17 -4 14 -10z m123
-37 c18 -3 35 -10 38 -15 10 -16 -89 2 -106 19 -13 14 -12 15 10 8 14 -4 40
-9 58 -12z m4604 -147 c18 -14 19 -36 0 -58 -6 -8 -9 -17 -7 -20 3 -3 -6 -13
-20 -22 -14 -9 -25 -23 -25 -31 0 -8 -7 -15 -15 -15 -8 0 -15 7 -15 15 0 8 5
15 10 15 16 0 12 27 -5 34 -12 4 -14 15 -9 48 9 68 10 69 41 57 15 -5 36 -16
45 -23z m-3855 -28 c-2 -8 -21 -13 -45 -13 -22 0 -44 -3 -48 -7 -12 -13 -24
-9 -24 6 0 15 26 22 88 25 23 1 32 -3 29 -11z m-127 -8 c0 -14 -48 -43 -60
-35 -17 10 -12 25 13 35 30 12 47 12 47 0z m-640 -20 c0 -5 -7 -10 -15 -10 -8
0 -15 5 -15 10 0 6 7 10 15 10 8 0 15 -4 15 -10z m520 -24 c0 -13 -99 -51
-108 -41 -3 2 3 8 13 12 10 3 26 14 34 22 20 20 61 24 61 7z m267 -116 c-1
-44 -3 -45 -42 -30 -37 14 -31 52 10 61 17 4 31 7 32 8 1 0 1 -17 0 -39z
m2500 3 c-3 -3 -11 -2 -17 2 -9 6 -9 10 1 16 14 8 27 -7 16 -18z m-2687 -45
c0 -91 92 -217 163 -225 12 -2 42 -6 66 -9 34 -5 52 -2 85 16 84 46 136 117
136 183 0 38 37 92 47 69 2 -7 20 -19 39 -27 22 -9 32 -19 28 -28 -3 -8 2 -17
10 -20 9 -4 19 -24 22 -47 4 -22 11 -43 15 -46 23 -14 7 -50 -37 -79 -35 -24
-44 -34 -39 -51 3 -13 -2 -27 -12 -35 -15 -13 -16 -11 -10 18 l6 32 -49 -1
c-50 -1 -73 -18 -24 -18 22 0 24 -3 18 -22 -11 -37 -21 -44 -69 -47 -26 -1
-58 -6 -71 -12 -34 -12 -46 -3 -38 28 l7 26 -22 -22 c-11 -11 -21 -25 -21 -31
0 -5 -4 -10 -10 -10 -5 0 -10 9 -10 19 0 19 -1 19 -37 1 -21 -10 -40 -14 -41
-9 -3 6 -9 6 -17 -1 -7 -6 -17 -10 -21 -9 -22 4 -32 -3 -39 -23 -6 -21 -8 -21
-12 -4 -3 10 -1 21 4 25 4 3 17 16 28 29 l19 23 -28 -7 c-25 -6 -28 -4 -23 10
9 23 -6 20 -21 -4 -7 -11 -19 -20 -26 -20 -8 0 -16 -4 -18 -10 -1 -5 -21 -12
-42 -15 -29 -3 -37 -2 -28 7 6 6 24 11 39 12 15 1 28 5 28 11 0 14 -58 16 -68
2 -6 -8 -7 -7 -4 5 3 9 -1 19 -10 22 -8 4 -13 13 -9 21 4 12 -4 15 -39 15 -47
0 -66 18 -71 67 -2 19 0 21 15 13 27 -14 31 -3 15 35 -18 43 -18 82 0 92 7 4
18 17 24 28 6 12 23 27 39 35 15 8 30 18 33 21 13 15 45 26 61 22 15 -4 19
-15 19 -55z m345 22 c3 -6 -1 -13 -10 -16 -19 -8 -30 0 -20 15 8 14 22 14 30
1z m2339 -17 c-1 -25 -4 -28 -35 -25 -19 1 -38 7 -43 12 -15 15 14 40 48 40
28 0 32 -3 30 -27z m140 18 c3 -5 -1 -12 -10 -15 -25 -10 -34 -7 -34 9 0 16
35 21 44 6z m-320 -52 c9 -65 33 -113 85 -165 49 -50 96 -74 144 -74 53 0 76
12 146 77 63 57 64 60 69 118 6 78 14 88 57 69 19 -8 43 -14 54 -14 31 0 73
-97 69 -162 -2 -44 -7 -54 -27 -64 -13 -7 -27 -17 -31 -24 -12 -19 -234 -29
-327 -14 -32 5 -43 3 -43 -6 0 -9 -12 -11 -45 -7 -35 5 -43 4 -39 -7 7 -18
-32 -40 -54 -30 -9 3 -35 6 -57 5 -38 -1 -39 -1 -21 14 11 8 16 15 10 15 -5 0
-3 4 5 9 10 6 24 5 40 -3 27 -13 61 -11 61 4 0 8 -64 27 -125 36 -130 20 -152
27 -164 45 -7 12 -9 30 -5 42 6 20 5 20 -10 8 -12 -10 -20 -11 -28 -3 -16 16
7 42 33 37 13 -3 19 2 19 15 0 11 10 25 23 31 12 7 44 32 71 56 65 58 82 57
90 -8z m-2730 -104 c3 -9 0 -15 -9 -15 -8 0 -15 7 -15 15 0 8 4 15 9 15 5 0
11 -7 15 -15z m2345 -18 c-9 -7 -19 -24 -22 -38 -4 -16 -16 -29 -29 -32 -22
-6 -22 -7 -3 -21 11 -9 15 -16 10 -16 -17 0 -35 22 -35 42 0 10 7 18 15 18 9
0 20 11 27 25 9 20 21 29 48 34 3 0 -2 -5 -11 -12z m-1304 -29 l28 -22 -54
-12 c-47 -11 -56 -10 -76 6 -17 13 -20 20 -10 28 35 28 77 28 112 0z m1415
-14 c0 -8 7 -14 15 -14 15 0 20 -12 9 -22 -8 -9 -54 41 -54 59 0 13 3 13 15 3
8 -7 15 -19 15 -26z m-1350 -91 c0 -20 -3 -24 -11 -16 -6 6 -18 9 -25 6 -8 -3
-22 -2 -31 2 -17 6 -17 7 1 21 11 8 30 14 43 14 18 0 23 -5 23 -27z m-110 -4
c0 -12 -50 -32 -59 -24 -3 4 5 15 19 25 24 18 40 18 40 -1z m1516 -14 c18 -13
16 -14 -23 -15 -23 0 -44 4 -47 9 -15 24 40 29 70 6z m125 2 c-1 -12 -15 -9
-19 4 -3 6 1 10 8 8 6 -3 11 -8 11 -12z m316 -43 c-7 -8 -67 8 -67 18 0 6 11
7 25 4 19 -5 27 -2 33 11 6 16 7 15 10 -5 2 -13 2 -26 -1 -28z m-337 5 c0 -12
-12 -11 -45 1 -37 14 -22 32 15 18 17 -5 30 -14 30 -19z m430 1 c0 -5 -4 -10
-10 -10 -5 0 -10 5 -10 10 0 6 5 10 10 10 6 0 10 -4 10 -10z m830 -2 c0 -7 -5
-20 -10 -28 -8 -12 -10 -9 -10 13 0 15 5 27 10 27 6 0 10 -6 10 -12z m-3656
-45 c12 -7 15 -13 7 -17 -6 -4 -11 -2 -11 4 0 6 -5 8 -10 5 -6 -4 -8 -11 -5
-16 9 -14 -5 -11 -21 6 -29 28 0 41 40 18z m3506 -23 c0 -19 -18 -19 -23 -1
-3 14 -1 18 9 14 8 -3 14 -9 14 -13z m-1270 -64 c0 -3 -4 -8 -10 -11 -5 -3
-10 -1 -10 4 0 6 5 11 10 11 6 0 10 -2 10 -4z m-2213 -42 c-3 -3 -12 -4 -19
-1 -8 3 -5 6 6 6 11 1 17 -2 13 -5z m2388 -84 c18 -8 17 -9 -7 -9 -16 -1 -28
4 -28 9 0 12 8 12 35 0z m435 -82 c-13 -5 -28 -7 -34 -4 -6 2 -3 5 7 5 9 1 17
5 17 11 0 5 7 7 17 3 14 -5 12 -8 -7 -15z m-69 -75 c-11 -5 -11 -7 0 -14 16
-9 12 -14 -17 -23 -16 -5 -23 -2 -27 13 -3 14 1 22 14 26 10 4 19 11 19 18 0
7 4 6 13 -2 10 -11 9 -14 -2 -18z m1219 -47 c0 -8 -4 -18 -10 -21 -5 -3 -10 3
-10 14 0 12 5 21 10 21 6 0 10 -6 10 -14z m-5248 -1261 c-2 -17 -11 -38 -20
-48 -9 -10 -19 -47 -24 -85 -4 -37 -10 -80 -12 -97 -18 -112 -22 -164 -20
-235 2 -64 0 -82 -11 -87 -16 -6 -20 -39 -7 -47 5 -3 8 -26 7 -51 0 -25 2 -45
6 -45 4 0 12 -13 17 -29 8 -23 7 -31 -4 -35 -8 -3 -14 -12 -14 -21 0 -8 -2
-15 -4 -15 -2 0 -13 -3 -23 -7 -15 -6 -16 -4 -6 8 9 11 9 20 0 38 -20 40 -43
48 -77 29 -17 -10 -38 -14 -47 -11 -13 5 -15 2 -11 -15 5 -17 2 -22 -14 -22
-14 0 -18 5 -14 16 3 9 6 20 6 25 0 5 5 9 12 9 6 0 20 7 30 17 22 20 25 55 3
47 -10 -4 -15 0 -15 11 0 9 4 14 9 11 5 -3 11 3 14 13 4 16 1 18 -23 11 -25
-7 -26 -6 -22 17 3 14 11 27 18 30 8 3 12 14 9 27 -3 11 2 48 10 81 9 33 20
76 25 96 5 19 16 49 25 65 8 16 15 35 15 43 0 8 13 41 29 75 17 34 40 88 52
121 27 70 47 97 68 93 11 -3 15 -13 13 -33z m175 -27 c-3 -8 -6 -5 -6 6 -1 11
2 17 5 13 3 -3 4 -12 1 -19z m23 -79 c0 -5 -4 -9 -10 -9 -5 0 -10 7 -10 16 0
8 5 12 10 9 6 -3 10 -10 10 -16z m3960 -34 c20 -21 21 -25 7 -25 -10 0 -27 6
-40 13 -12 6 -24 13 -26 14 -1 1 0 6 4 12 10 18 30 13 55 -14z m-1113 -31 c-3
-3 -12 -4 -19 -1 -8 3 -5 6 6 6 11 1 17 -2 13 -5z m973 -4 c0 -5 -2 -10 -4
-10 -3 0 -8 5 -11 10 -3 6 -1 10 4 10 6 0 11 -4 11 -10z m90 -38 c-6 -2 -18 2
-26 9 -13 10 -17 10 -24 -1 -5 -8 -12 -12 -15 -8 -4 3 2 15 11 27 l18 21 24
-22 c13 -13 18 -24 12 -26z m-150 14 c0 -15 -27 -29 -40 -21 -5 3 -11 1 -15
-5 -8 -13 -25 -13 -25 -1 0 5 14 12 30 16 17 4 30 11 30 16 0 5 5 9 10 9 6 0
10 -6 10 -14z m-283 -41 c8 -22 -6 -33 -17 -15 -13 20 -12 30 0 30 6 0 13 -7
17 -15z m-52 -5 c-3 -5 -11 -10 -16 -10 -6 0 -7 5 -4 10 3 6 11 10 16 10 6 0
7 -4 4 -10z m2612 -30 c-3 -13 0 -20 9 -20 8 0 14 4 14 9 0 10 91 20 126 13
14 -2 29 -12 32 -21 4 -9 20 -17 37 -17 21 -1 42 -13 68 -39 20 -20 37 -41 37
-46 0 -5 9 -9 19 -9 17 0 31 -18 31 -41 0 -5 -9 -9 -21 -9 -11 0 -32 -9 -46
-20 -32 -25 -38 -25 -64 1 -18 18 -24 19 -44 9 -13 -7 -26 -26 -30 -44 l-7
-31 -9 25 c-6 13 -9 36 -7 50 5 45 -25 29 -38 -20 -8 -34 -13 -41 -19 -27 -10
24 -33 21 -55 -5 -21 -26 -19 -27 -43 25 -15 33 -47 52 -47 27 0 -18 -39 -10
-50 10 -6 11 -23 23 -38 26 -45 11 -62 32 -55 68 4 17 13 36 22 43 9 6 16 17
16 24 0 7 6 14 13 17 8 2 12 -9 13 -35 1 -38 1 -38 12 -10 6 15 16 27 21 27 6
0 22 9 36 20 14 11 36 20 49 20 18 0 22 -4 18 -20z m-355 -85 c0 -5 -5 -11
-11 -13 -6 -2 -11 4 -11 13 0 9 5 15 11 13 6 -2 11 -8 11 -13z m124 0 c18 -14
18 -14 -7 -15 -15 0 -29 -7 -33 -15 -3 -8 -12 -15 -19 -15 -15 0 -39 44 -30
54 12 12 69 6 89 -9z m-98 -39 c3 -12 -1 -17 -10 -14 -7 3 -15 13 -16 22 -3
12 1 17 10 14 7 -3 15 -13 16 -22z m60 -28 c18 -18 15 -28 -8 -28 -13 0 -20 7
-20 20 0 23 10 26 28 8z m-5608 -80 c0 -7 -5 -20 -10 -28 -8 -12 -10 -9 -10
13 0 15 5 27 10 27 6 0 10 -6 10 -12z m2688 -36 c9 -27 8 -27 -29 -28 -29 -1
-39 3 -40 15 -1 13 -2 13 -6 -1 -7 -27 -23 -21 -23 8 0 18 4 24 13 21 8 -3 20
-1 28 4 26 16 47 9 57 -19z m32 -2 c0 -5 -4 -10 -10 -10 -5 0 -10 5 -10 10 0
6 5 10 10 10 6 0 10 -4 10 -10z m109 -3 c-8 -7 -18 -21 -22 -31 -4 -10 -10
-17 -13 -14 -10 10 19 58 35 58 14 -1 15 -2 0 -13z m-76 -32 c-9 -19 -19 -33
-21 -30 -7 7 19 65 29 65 5 0 1 -16 -8 -35z m3826 -1 c16 -37 -11 -88 -42 -79
-12 4 -29 15 -39 26 -9 10 -21 19 -27 19 -6 0 -11 11 -11 25 0 23 4 25 40 25
22 0 40 4 40 10 0 17 27 -1 39 -26z m415 -33 c-6 -6 -24 19 -24 34 1 6 7 1 15
-9 8 -11 12 -22 9 -25z m10 -17 c19 -7 67 -91 91 -159 10 -27 24 -64 31 -81 8
-18 14 -43 13 -55 0 -24 14 -97 31 -154 5 -16 6 -42 3 -56 -2 -15 1 -37 8 -50
8 -13 15 -42 15 -64 3 -76 13 -176 19 -194 5 -16 2 -18 -15 -14 -22 6 -28 -15
-9 -34 8 -8 8 -13 0 -17 -6 -4 -11 -2 -11 4 0 7 -7 10 -15 6 -12 -4 -13 -2 -3
14 10 15 9 23 -7 41 -14 16 -16 23 -7 26 22 8 13 43 -13 53 -29 11 -31 17 -10
40 12 13 13 27 4 79 -5 35 -17 70 -25 78 -8 9 -13 22 -10 30 3 8 -1 25 -10 38
-9 14 -14 32 -10 40 3 9 -3 20 -14 27 -13 8 -20 24 -20 44 0 60 -11 94 -31 94
-23 0 -25 16 -3 28 11 6 13 11 5 16 -6 4 -11 18 -11 32 0 25 -15 33 -23 12 -3
-8 -9 -2 -15 13 -13 34 1 106 24 124 18 14 18 14 -3 15 -25 0 -31 15 -10 23 6
3 13 6 14 6 1 1 8 -2 17 -5z m-364 -33 c0 -5 6 -16 14 -24 12 -12 20 -62 17
-104 -1 -7 -12 -13 -25 -13 -20 0 -24 6 -29 45 -7 49 1 105 14 105 5 0 9 -4 9
-9z m-5490 -10 c0 -5 -8 -8 -17 -7 -14 1 -17 -5 -15 -24 2 -22 1 -23 -10 -10
-7 9 -21 14 -32 12 -12 -3 -17 1 -14 10 3 7 12 12 22 10 9 -2 16 1 16 5 0 5
11 10 25 11 14 1 25 -2 25 -7z m-120 -37 c0 -9 -7 -14 -17 -12 -25 5 -28 28
-4 28 12 0 21 -6 21 -16z m5750 6 c0 -5 6 -7 14 -4 20 8 35 -24 44 -94 6 -44
5 -64 -5 -78 -7 -10 -13 -28 -13 -40 0 -35 -19 -44 -73 -32 -42 9 -47 12 -47
37 0 22 4 27 22 27 29 -1 36 29 12 55 -16 18 -16 20 1 39 10 11 13 20 7 20 -7
0 -12 9 -12 20 0 11 -7 23 -15 26 -32 13 -16 34 25 34 22 0 40 -4 40 -10z
m-1200 -20 c0 -5 -2 -10 -4 -10 -3 0 -8 5 -11 10 -3 6 -1 10 4 10 6 0 11 -4
11 -10z m-4560 -20 c0 -5 -7 -10 -15 -10 -8 0 -15 -4 -15 -10 0 -5 7 -10 15
-10 8 0 15 -4 15 -10 0 -5 -11 -10 -25 -10 -20 0 -25 5 -25 23 0 13 3 27 7 30
10 11 43 8 43 -3z m60 -15 c0 -8 -9 -15 -20 -15 -11 0 -20 7 -20 15 0 8 9 15
20 15 11 0 20 -7 20 -15z m4507 -7 c-3 -8 -6 -5 -6 6 -1 11 2 17 5 13 3 -3 4
-12 1 -19z m-6110 -22 c-5 -17 -57 -20 -57 -3 0 20 8 25 36 19 14 -2 23 -10
21 -16z m-82 -26 c0 -27 -22 -39 -31 -16 -8 22 3 49 19 43 6 -2 12 -14 12 -27z
m1710 -10 c3 -6 -1 -7 -9 -4 -18 7 -21 14 -7 14 6 0 13 -4 16 -10z m-1535 -5
c0 -11 -44 -44 -52 -39 -5 3 2 14 14 24 22 19 38 25 38 15z m1455 -30 c0 -28
-4 -35 -20 -35 -20 0 -59 20 -39 20 5 0 19 7 30 15 16 13 16 14 2 9 -10 -3
-18 -1 -18 4 0 9 9 14 40 21 3 0 5 -15 5 -34z m812 22 c6 -4 83 -9 170 -10 88
-2 164 -6 170 -10 6 -4 35 -9 64 -12 30 -4 77 -10 104 -15 67 -13 115 -13 205
0 70 10 99 11 205 9 64 -1 113 -17 120 -39 8 -25 23 -26 21 -2 -2 25 118 31
145 7 10 -10 23 -14 29 -10 7 4 9 -1 5 -17 -4 -17 0 -29 14 -42 27 -24 27 -36
0 -36 -11 0 -36 -18 -57 -40 -20 -24 -42 -38 -50 -35 -7 3 -23 0 -34 -6 -25
-13 -80 -3 -57 12 16 10 8 12 -16 3 -13 -5 -14 -9 -4 -15 8 -4 10 -12 5 -16
-4 -4 -14 0 -21 11 -15 20 -11 27 33 58 18 12 20 17 8 21 -9 4 -18 2 -21 -3
-3 -5 -13 -6 -22 -3 -11 4 -14 3 -9 -6 4 -6 0 -23 -8 -36 -10 -16 -14 -34 -10
-50 5 -21 3 -25 -15 -25 -23 0 -29 -15 -8 -23 6 -3 2 -6 -11 -6 -13 -1 -34
-12 -47 -25 -13 -13 -50 -33 -82 -46 -32 -12 -66 -26 -75 -31 -24 -12 -51 -11
-120 3 -51 11 -63 10 -91 -5 -42 -22 -218 -18 -266 6 -17 8 -45 18 -62 22 -27
6 -30 5 -25 -12 10 -31 -24 -56 -58 -43 -25 9 -43 12 -173 27 -51 5 -53 4 -53
-18 0 -16 -8 -28 -22 -34 -13 -6 -25 -21 -26 -34 -3 -20 0 -23 17 -18 13 3 21
0 21 -8 0 -7 7 -15 15 -19 8 -3 12 -12 9 -21 -5 -11 1 -15 20 -15 18 0 26 -5
26 -18 0 -24 61 -39 169 -40 59 -2 89 -6 101 -17 9 -8 39 -18 66 -22 27 -3 55
-13 61 -22 10 -13 14 -14 22 -2 5 8 11 9 15 3 3 -6 15 -8 26 -5 11 3 20 1 20
-4 0 -6 37 -9 88 -8 48 0 92 -2 98 -7 6 -4 26 -3 44 2 21 6 38 6 45 0 7 -5 15
-7 18 -4 10 11 101 11 114 1 7 -5 24 -7 37 -5 18 4 27 -1 35 -18 9 -20 14 -22
35 -14 31 12 38 2 26 -38 -11 -40 6 -54 20 -16 6 15 12 25 14 23 8 -10 16 -80
9 -76 -5 3 -15 2 -21 -2 -8 -4 7 -8 34 -10 29 -1 51 4 56 11 6 10 8 9 8 -3 0
-9 -11 -22 -25 -29 -13 -7 -21 -18 -18 -24 4 -6 8 -33 8 -60 1 -39 -2 -50 -17
-54 -10 -2 -18 -12 -18 -21 0 -13 -2 -13 -9 -2 -6 9 -11 10 -15 2 -4 -6 -4
-16 -1 -21 10 -16 -43 -12 -68 5 -20 13 -26 12 -55 -5 -18 -11 -30 -25 -26
-31 3 -6 -3 -13 -15 -16 -12 -3 -21 -12 -21 -19 0 -11 -7 -13 -27 -8 -42 10
-57 39 -25 47 13 4 12 5 -5 6 -12 0 -27 -7 -32 -16 -7 -11 -14 -14 -18 -8 -12
15 -95 17 -121 3 -20 -10 -29 -10 -53 4 -16 10 -29 14 -29 10 0 -9 -47 -8 -57
1 -3 4 -23 7 -44 7 -36 0 -39 2 -49 40 -10 39 -40 57 -40 25 0 -8 7 -15 15
-15 8 0 15 -4 15 -9 0 -17 -19 -22 -40 -11 -11 6 -20 8 -20 4 0 -13 33 -44 46
-44 8 0 11 -6 7 -17 -4 -11 -8 -12 -11 -5 -2 7 -10 12 -17 12 -8 0 -25 15 -39
33 -19 23 -26 27 -26 15 0 -10 5 -18 10 -18 6 0 10 -4 10 -10 0 -5 -9 -10 -19
-10 -39 0 -50 -10 -44 -41 5 -28 -9 -41 -22 -19 -3 6 -15 10 -25 10 -10 0 -21
6 -23 13 -3 6 -6 0 -6 -14 -1 -18 -8 -28 -21 -32 -11 -3 -20 -12 -20 -21 0
-21 -39 -21 -55 0 -11 15 -14 15 -37 0 -24 -15 -26 -15 -59 15 l-34 31 40 -3
c38 -2 85 16 85 34 0 4 -18 4 -40 1 -31 -5 -41 -3 -46 10 -9 24 -20 19 -35
-16 -17 -43 -36 -63 -42 -45 -3 8 -12 5 -29 -10 -28 -27 -50 -29 -68 -8 -6 8
-19 13 -28 12 -30 -4 -23 18 9 28 17 6 35 18 40 28 9 15 5 17 -23 16 -18 0
-27 -3 -20 -6 24 -10 11 -21 -34 -28 -34 -5 -49 -3 -55 7 -7 10 -11 10 -21 0
-26 -26 -77 -4 -70 31 1 4 -2 7 -8 7 -5 0 -7 7 -4 15 4 8 13 15 21 15 12 0 14
-7 9 -32 -5 -24 -4 -30 5 -21 6 6 18 9 26 6 20 -8 67 18 51 28 -8 5 -2 12 18
20 16 7 30 14 32 15 5 3 -45 54 -53 54 -4 0 -13 7 -20 17 -13 18 -35 10 -35
-13 0 -8 -7 -14 -16 -14 -10 0 -14 -6 -11 -14 8 -20 -30 -31 -48 -16 -8 7 -15
21 -15 32 0 17 5 19 30 13 23 -5 30 -3 30 8 0 8 7 18 16 21 8 3 12 10 9 16 -4
6 -11 8 -16 5 -5 -3 -6 0 -3 8 9 24 -23 42 -52 28 -24 -11 -94 -16 -94 -6 0 2
12 16 26 30 21 21 23 29 14 40 -8 10 -9 15 -2 15 7 0 9 13 5 34 -5 30 -3 34
23 39 17 3 32 0 37 -6 5 -9 11 -8 20 3 6 9 20 14 29 12 9 -2 21 6 27 16 8 16
21 20 57 20 39 -1 49 3 73 31 23 27 31 30 59 25 31 -6 39 1 24 21 -7 10 -10
11 -62 14 -41 2 -38 21 3 21 l32 1 -30 16 c-20 11 -30 12 -33 4 -5 -14 -42
-15 -42 -1 0 6 8 10 19 10 20 0 33 30 21 49 -3 7 -14 9 -23 5 -10 -3 -24 -1
-31 6 -11 8 -20 8 -35 1 -24 -13 -71 -14 -71 -2 0 5 14 11 30 15 17 3 30 11
30 19 0 16 -64 41 -68 27 -2 -5 -12 -10 -22 -10 -10 0 -22 -5 -25 -10 -5 -8
-11 -8 -20 0 -7 6 -26 8 -42 5 -15 -4 -23 -3 -17 2 18 14 25 45 13 59 -6 8
-26 14 -44 14 -29 0 -32 2 -27 26 4 21 1 25 -14 22 -11 -2 -18 -11 -18 -21 1
-9 -4 -17 -12 -17 -12 0 -16 13 -14 48 1 4 9 6 19 4 9 -1 26 7 36 18 10 11 13
20 7 20 -18 0 -46 61 -32 70 6 4 10 11 9 16 -5 27 3 54 15 54 7 0 16 9 19 20
3 11 1 18 -4 14 -5 -3 -9 -1 -9 3 0 5 14 17 30 26 17 10 30 24 30 30 1 7 31
26 68 43 51 24 72 30 90 23 35 -13 132 -11 132 3 0 6 7 4 18 -6 18 -15 21 -15
46 5 14 11 39 24 54 28 32 9 124 7 139 -2z m-1123 -6 c3 -5 -1 -14 -8 -20 -12
-10 -14 -9 -11 6 2 10 4 19 4 21 2 5 10 2 15 -7z m-1281 -18 c-18 -7 -16 -33
2 -33 8 0 15 -4 15 -10 0 -18 -36 -28 -87 -23 -47 5 -53 8 -53 28 0 21 4 22
43 18 31 -4 46 -1 56 11 7 9 19 16 25 15 7 0 6 -2 -1 -6z m1434 -23 c-13 -22
-41 -28 -34 -7 2 6 10 11 16 10 6 -2 11 4 11 13 0 8 4 12 10 9 6 -4 5 -13 -3
-25z m77 15 c-4 -8 -8 -15 -10 -15 -2 0 -4 7 -4 15 0 8 4 15 10 15 5 0 7 -7 4
-15z m-24 -49 c0 -5 -11 -10 -25 -12 -17 -2 -25 2 -25 12 0 11 8 14 25 12 14
-2 26 -7 25 -12z m-1628 -28 c2 -7 -3 -34 -12 -60 l-16 -47 -23 22 c-16 15
-25 18 -28 10 -3 -7 -11 -13 -19 -13 -16 0 -19 -16 -4 -25 15 -9 2 -25 -20
-25 -11 0 -28 -12 -37 -27 -10 -16 -28 -38 -40 -51 -13 -13 -23 -26 -23 -30
-1 -4 -13 -22 -29 -40 -22 -26 -32 -31 -50 -25 -20 8 -20 10 14 42 19 18 35
42 35 53 0 33 29 73 77 102 24 16 65 50 91 77 46 48 76 61 84 37z m3911 -14
c20 -7 9 -44 -13 -44 -10 0 -27 -3 -37 -6 -11 -4 -14 -3 -7 3 6 4 16 18 23 31
13 24 13 24 34 16z m-3883 -29 c0 -8 -4 -15 -10 -15 -5 0 -10 7 -10 15 0 8 5
15 10 15 6 0 10 -7 10 -15z m232 -67 c-7 -7 -12 -8 -12 -2 0 6 3 14 7 17 3 4
9 5 12 2 2 -3 -1 -11 -7 -17z m1158 -23 c0 -9 -6 -12 -15 -9 -8 4 -12 10 -9
15 8 14 24 10 24 -6z m2435 -5 c3 -5 -1 -10 -10 -10 -9 0 -13 5 -10 10 3 6 8
10 10 10 2 0 7 -4 10 -10z m-2759 -26 c-9 -8 -21 -12 -28 -8 -8 5 -6 10 8 15
31 12 37 10 20 -7z m2609 -14 c-3 -5 -11 -10 -16 -10 -6 0 -7 5 -4 10 3 6 11
10 16 10 6 0 7 -4 4 -10z m52 -42 c-3 -8 -6 -5 -6 6 -1 11 2 17 5 13 3 -3 4
-12 1 -19z m-1887 -22 c0 -7 -7 -19 -15 -26 -16 -13 -20 -3 -9 24 8 20 24 21
24 2z m-700 -6 c0 -5 -4 -10 -10 -10 -5 0 -10 5 -10 10 0 6 5 10 10 10 6 0 10
-4 10 -10z m-1497 -47 c-6 -15 -28 -48 -51 -71 -57 -62 -65 -73 -85 -117 -16
-34 -17 -39 -3 -47 14 -8 13 -11 -2 -28 -9 -11 -22 -20 -28 -20 -7 0 -15 -6
-18 -12 -3 -7 -3 -3 0 10 4 15 0 30 -11 42 -9 10 -17 30 -19 45 -2 15 -9 31
-17 36 -20 13 28 51 59 45 14 -2 26 2 29 10 3 8 14 14 24 14 11 0 16 5 13 13
-4 10 30 46 101 106 16 13 18 5 8 -26z m108 -66 c-16 -16 -26 0 -10 19 9 11
15 12 17 4 2 -6 -1 -17 -7 -23z m-81 -6 c0 -6 -4 -13 -10 -16 -5 -3 -10 1 -10
9 0 9 5 16 10 16 6 0 10 -4 10 -9z m2740 -25 c0 -3 -4 -8 -10 -11 -5 -3 -10
-1 -10 4 0 6 5 11 10 11 6 0 10 -2 10 -4z m-323 -48 c-3 -8 -6 -5 -6 6 -1 11
2 17 5 13 3 -3 4 -12 1 -19z m97 -62 c-6 -15 -24 -23 -24 -11 0 8 24 34 28 30
1 -1 0 -10 -4 -19z m-768 -34 c-9 -9 -36 13 -36 30 0 19 1 19 19 -3 11 -13 18
-25 17 -27z m-2076 28 c0 -5 -4 -10 -10 -10 -5 0 -10 5 -10 10 0 6 5 10 10 10
6 0 10 -4 10 -10z m2169 -16 c-6 -8 -19 -13 -28 -13 -13 1 -12 2 2 6 11 3 16
11 13 18 -3 9 0 12 10 8 11 -4 12 -9 3 -19z m-2152 -6 c-3 -8 -6 -5 -6 6 -1
11 2 17 5 13 3 -3 4 -12 1 -19z m-27 -8 c0 -5 -10 -10 -22 -10 -19 0 -20 2 -8
10 19 13 30 13 30 0z m2205 -20 c-3 -5 -15 -15 -26 -20 -15 -8 -19 -7 -19 4 0
13 14 21 43 25 5 0 5 -3 2 -9z m42 4 c-3 -3 -12 -4 -19 -1 -8 3 -5 6 6 6 11 1
17 -2 13 -5z m-2187 -34 c0 -11 -6 -20 -14 -20 -21 0 -31 21 -15 31 22 14 29
11 29 -11z m8520 10 c0 -5 -4 -10 -10 -10 -5 0 -10 5 -10 10 0 6 5 10 10 10 6
0 10 -4 10 -10z m-5730 -20 c0 -5 -4 -10 -10 -10 -5 0 -10 5 -10 10 0 6 5 10
10 10 6 0 10 -4 10 -10z m-2831 -44 c17 -21 -4 -30 -23 -10 -9 8 -16 17 -16
20 0 10 29 3 39 -10z m8526 -15 c3 -5 1 -12 -5 -16 -5 -3 -10 1 -10 9 0 18 6
21 15 7z m-8403 -33 c-9 -9 -12 -7 -12 12 0 19 3 21 12 12 9 -9 9 -15 0 -24z
m-241 6 c10 -9 16 -21 13 -28 -3 -7 12 -21 33 -31 l38 -19 -33 -4 c-48 -5 -62
3 -63 35 0 15 -3 22 -6 16 -6 -17 -21 -16 -39 2 -14 13 -14 16 0 21 9 3 13 10
10 15 -9 15 29 10 47 -7z m8669 -24 c-20 -13 -33 -13 -25 0 3 6 14 10 23 10
15 0 15 -2 2 -10z m-5931 -9 c9 -6 11 -15 6 -27 -5 -11 -7 -23 -6 -28 3 -13
-20 -26 -46 -26 -29 0 -30 26 -3 35 23 7 26 25 8 43 -9 9 -8 12 8 12 10 0 25
-4 33 -9z m-2366 -61 c9 -11 14 -20 11 -20 -13 0 -44 21 -44 30 0 16 14 11 33
-10z m7 -35 c10 -12 9 -16 -5 -21 -19 -8 -40 9 -31 25 10 15 21 14 36 -4z m75
-55 c3 -5 -1 -10 -9 -10 -9 0 -16 5 -16 10 0 6 4 10 9 10 6 0 13 -4 16 -10z
m2323 -92 c7 -7 12 -16 12 -20 0 -13 -37 -9 -49 5 -20 24 14 38 37 15z m166
-33 c-6 -16 -34 -21 -34 -7 0 13 11 22 26 22 8 0 11 -6 8 -15z m604 -91 c-10
-10 -28 6 -28 24 0 15 1 15 17 -1 9 -9 14 -19 11 -23z m477 -4 c3 -5 1 -10 -4
-10 -6 0 -11 5 -11 10 0 6 2 10 4 10 3 0 8 -4 11 -10z m-4525 -35 c0 -7 -7
-18 -16 -23 -11 -6 -15 -17 -11 -31 3 -11 2 -21 -1 -22 -55 -7 -54 -8 -47 34
5 28 3 42 -6 48 -9 6 3 9 34 9 34 0 47 -4 47 -15z m30 -5 c0 -5 -4 -10 -10
-10 -5 0 -10 5 -10 10 0 6 5 10 10 10 6 0 10 -4 10 -10z m-116 -14 c-3 -8 -12
-12 -20 -9 -17 6 -9 23 11 23 8 0 12 -6 9 -14z m1912 -23 c-10 -10 -19 5 -10
18 6 11 8 11 12 0 2 -7 1 -15 -2 -18z m-1726 -94 c0 -6 -4 -7 -10 -4 -5 3 -10
11 -10 16 0 6 5 7 10 4 6 -3 10 -11 10 -16z m75 -9 c-3 -5 -12 -10 -20 -10 -8
0 -17 5 -20 10 -4 6 5 10 20 10 15 0 24 -4 20 -10z m75 -20 c0 -5 -9 -10 -21
-10 -11 0 -17 5 -14 10 3 6 13 10 21 10 8 0 14 -4 14 -10z m-791 -141 c-16
-10 -23 -4 -14 10 3 6 11 8 17 5 6 -4 5 -9 -3 -15z m-9 -41 c0 -7 -11 -18 -25
-25 -28 -13 -33 -2 -9 21 19 19 34 21 34 4z m-73 -60 c-3 -8 -6 -5 -6 6 -1 11
2 17 5 13 3 -3 4 -12 1 -19z m2833 -272 c0 -3 -4 -8 -10 -11 -5 -3 -10 -1 -10
4 0 6 5 11 10 11 6 0 10 -2 10 -4z m320 -136 c0 -5 -4 -10 -10 -10 -5 0 -10 5
-10 10 0 6 5 10 10 10 6 0 10 -4 10 -10z m-230 -74 c0 -3 -4 -8 -10 -11 -5 -3
-10 -1 -10 4 0 6 5 11 10 11 6 0 10 -2 10 -4z"/>
<path d="M5145 8229 c-11 -17 0 -20 21 -4 17 13 17 14 2 15 -9 0 -20 -5 -23
-11z"/>
<path d="M5830 8051 c0 -5 5 -13 10 -16 6 -3 10 -2 10 4 0 5 -4 13 -10 16 -5
3 -10 2 -10 -4z"/>
<path d="M5705 7970 c-3 -5 -1 -10 4 -10 6 0 11 5 11 10 0 6 -2 10 -4 10 -3 0
-8 -4 -11 -10z"/>
<path d="M5654 7944 c3 -9 6 -18 6 -20 0 -2 9 -4 20 -4 13 0 20 -7 20 -20 0
-11 4 -20 9 -20 21 0 18 17 -10 48 -30 34 -55 43 -45 16z"/>
<path d="M5752 7920 c0 -19 2 -27 5 -17 2 9 2 25 0 35 -3 9 -5 1 -5 -18z"/>
<path d="M5800 7911 c0 -12 5 -21 10 -21 6 0 10 6 10 14 0 8 -4 18 -10 21 -5
3 -10 -3 -10 -14z"/>
<path d="M3153 7801 c-28 -26 -33 -41 -12 -41 4 0 16 16 28 35 11 19 19 35 18
35 -1 0 -16 -14 -34 -29z"/>
<path d="M3150 7690 c0 -5 7 -10 16 -10 8 0 12 5 9 10 -3 6 -10 10 -16 10 -5
0 -9 -4 -9 -10z"/>
<path d="M3230 7671 c-13 -26 -13 -31 5 -31 9 0 15 9 15 25 0 30 -6 32 -20 6z"/>
<path d="M3190 7640 c-9 -6 -10 -10 -3 -10 6 0 15 5 18 10 8 12 4 12 -15 0z"/>
<path d="M3078 7483 c7 -3 16 -2 19 1 4 3 -2 6 -13 5 -11 0 -14 -3 -6 -6z"/>
<path d="M6100 7450 c0 -5 5 -10 11 -10 5 0 7 5 4 10 -3 6 -8 10 -11 10 -2 0
-4 -4 -4 -10z"/>
<path d="M4020 7400 c0 -5 7 -10 15 -10 8 0 15 5 15 10 0 6 -7 10 -15 10 -8 0
-15 -4 -15 -10z"/>
<path d="M3080 7336 c0 -9 5 -16 10 -16 6 0 10 4 10 9 0 6 -4 13 -10 16 -5 3
-10 -1 -10 -9z"/>
<path d="M6140 7340 c0 -5 5 -10 10 -10 6 0 10 5 10 10 0 6 -4 10 -10 10 -5 0
-10 -4 -10 -10z"/>
<path d="M6141 7311 c-10 -6 -10 -10 -1 -16 13 -8 24 -1 19 14 -3 6 -10 7 -18
2z"/>
<path d="M3050 7265 c0 -8 5 -15 10 -15 6 0 10 7 10 15 0 8 -4 15 -10 15 -5 0
-10 -7 -10 -15z"/>
<path d="M6145 7260 c-3 -5 -1 -10 4 -10 6 0 11 5 11 10 0 6 -2 10 -4 10 -3 0
-8 -4 -11 -10z"/>
<path d="M6093 7253 c-22 -8 -14 -23 12 -23 16 0 25 6 25 15 0 15 -14 18 -37
8z"/>
<path d="M6070 7160 c0 -19 3 -21 12 -12 9 9 9 15 0 24 -9 9 -12 7 -12 -12z"/>
<path d="M6030 7065 c0 -9 5 -15 11 -13 6 2 11 8 11 13 0 5 -5 11 -11 13 -6 2
-11 -4 -11 -13z"/>
<path d="M5800 7010 c0 -5 -9 -10 -20 -10 -22 0 -28 -26 -7 -33 14 -5 59 13
69 28 13 18 9 25 -17 25 -14 0 -25 -4 -25 -10z"/>
<path d="M5940 7012 c0 -5 7 -16 16 -23 14 -12 16 -11 13 5 -4 20 -29 35 -29
18z"/>
<path d="M3095 6921 c-3 -5 -1 -12 5 -16 5 -3 10 1 10 9 0 18 -6 21 -15 7z"/>
<path d="M2870 6765 c0 -9 -7 -18 -15 -21 -8 -4 -15 -13 -15 -22 0 -11 8 -8
30 13 33 32 38 45 15 45 -8 0 -15 -7 -15 -15z"/>
<path d="M6145 6750 c3 -5 8 -10 11 -10 2 0 4 5 4 10 0 6 -5 10 -11 10 -5 0
-7 -4 -4 -10z"/>
<path d="M6080 6740 c0 -5 7 -10 16 -10 8 0 12 5 9 10 -3 6 -10 10 -16 10 -5
0 -9 -4 -9 -10z"/>
<path d="M2962 6728 c3 -7 12 -14 21 -16 12 -2 15 1 11 12 -7 19 -38 22 -32 4z"/>
<path d="M2797 6613 c-12 -12 -7 -22 8 -17 8 4 15 10 15 15 0 11 -14 12 -23 2z"/>
<path d="M6255 6600 c3 -5 10 -10 16 -10 5 0 9 5 9 10 0 6 -7 10 -16 10 -8 0
-12 -4 -9 -10z"/>
<path d="M6522 6471 c2 -7 7 -12 11 -12 12 1 9 15 -3 20 -7 2 -11 -2 -8 -8z"/>
<path d="M2860 6460 c0 -5 5 -10 10 -10 6 0 10 5 10 10 0 6 -4 10 -10 10 -5 0
-10 -4 -10 -10z"/>
<path d="M2640 6376 c0 -3 11 -16 24 -31 20 -22 25 -23 36 -10 10 12 10 15 -4
15 -9 0 -19 7 -22 15 -5 13 -34 22 -34 11z"/>
<path d="M3450 6270 c0 -5 7 -10 15 -10 8 0 15 5 15 10 0 6 -7 10 -15 10 -8 0
-15 -4 -15 -10z"/>
<path d="M3795 6220 c3 -5 13 -10 21 -10 8 0 12 5 9 10 -3 6 -13 10 -21 10 -8
0 -12 -4 -9 -10z"/>
<path d="M2955 5820 c-3 -5 1 -10 10 -10 9 0 13 5 10 10 -3 6 -8 10 -10 10 -2
0 -7 -4 -10 -10z"/>
<path d="M3310 5816 c0 -2 11 -6 25 -8 14 -3 25 -1 25 3 0 5 -11 9 -25 9 -14
0 -25 -2 -25 -4z"/>
<path d="M3175 5800 c-4 -6 7 -10 27 -10 25 0 29 3 18 10 -19 13 -37 13 -45 0z"/>
<path d="M3060 5790 c0 -6 -28 -10 -65 -10 -58 0 -65 -2 -65 -20 0 -11 5 -20
10 -20 6 0 10 4 10 10 0 5 39 9 97 7 53 -1 89 -1 80 1 -20 4 -22 13 -5 30 9 9
4 12 -25 12 -20 0 -37 -4 -37 -10z"/>
<path d="M2790 5760 l-35 -7 38 -2 c20 0 37 4 37 9 0 6 -1 9 -2 9 -2 -1 -19
-5 -38 -9z"/>
<path d="M2852 5749 c2 -6 7 -10 11 -10 4 1 14 1 23 1 8 0 12 5 9 10 -8 13
-48 13 -43 -1z"/>
<path d="M2972 5721 c2 -7 7 -12 11 -12 12 1 9 15 -3 20 -7 2 -11 -2 -8 -8z"/>
<path d="M2900 5710 c0 -5 9 -10 20 -10 11 0 20 5 20 10 0 6 -9 10 -20 10 -11
0 -20 -4 -20 -10z"/>
<path d="M7330 4956 c0 -9 5 -16 10 -16 6 0 10 4 10 9 0 6 -4 13 -10 16 -5 3
-10 -1 -10 -9z"/>
<path d="M2350 4929 c0 -5 5 -7 10 -4 6 3 10 8 10 11 0 2 -4 4 -10 4 -5 0 -10
-5 -10 -11z"/>
<path d="M7341 4904 c0 -11 3 -14 6 -6 3 7 2 16 -1 19 -3 4 -6 -2 -5 -13z"/>
<path d="M5870 4895 c0 -8 4 -15 10 -15 5 0 7 7 4 15 -4 8 -8 15 -10 15 -2 0
-4 -7 -4 -15z"/>
<path d="M5785 4710 c3 -5 10 -10 16 -10 5 0 9 5 9 10 0 6 -7 10 -16 10 -8 0
-12 -4 -9 -10z"/>
<path d="M2450 4690 c0 -5 4 -10 9 -10 6 0 13 5 16 10 3 6 -1 10 -9 10 -9 0
-16 -4 -16 -10z"/>
<path d="M5960 4364 c0 -8 5 -12 10 -9 6 4 8 11 5 16 -9 14 -15 11 -15 -7z"/>
<path d="M5668 4323 c7 -3 16 -2 19 1 4 3 -2 6 -13 5 -11 0 -14 -3 -6 -6z"/>
<path d="M5640 4249 c0 -28 19 -61 31 -54 5 4 9 15 9 26 0 10 5 19 11 19 8 0
8 5 -1 15 -19 23 -50 19 -50 -6z"/>
<path d="M5760 4195 c0 -8 7 -15 15 -15 8 0 15 7 15 15 0 8 -7 15 -15 15 -8 0
-15 -7 -15 -15z"/>
<path d="M5680 4171 c0 -11 4 -21 9 -21 18 0 21 18 6 30 -13 10 -15 9 -15 -9z"/>
<path d="M5648 4153 c7 -3 16 -2 19 1 4 3 -2 6 -13 5 -11 0 -14 -3 -6 -6z"/>
<path d="M4400 4119 c0 -5 5 -7 10 -4 6 3 10 8 10 11 0 2 -4 4 -10 4 -5 0 -10
-5 -10 -11z"/>
<path d="M5700 4110 c0 -5 5 -10 10 -10 6 0 10 5 10 10 0 6 -4 10 -10 10 -5 0
-10 -4 -10 -10z"/>
<path d="M4385 4090 c3 -5 8 -10 11 -10 2 0 4 5 4 10 0 6 -5 10 -11 10 -5 0
-7 -4 -4 -10z"/>
<path d="M2637 3810 c-12 -15 -16 -36 -15 -80 1 -33 4 -60 7 -60 2 0 13 8 24
18 15 12 21 14 24 5 7 -20 29 -15 41 10 11 21 11 21 6 -4 -4 -20 0 -28 20 -37
21 -9 26 -9 26 2 0 23 -41 107 -49 101 -5 -3 -16 11 -25 30 -19 40 -34 44 -59
15z"/>
<path d="M5957 3543 c-4 -3 -7 -11 -7 -17 0 -6 5 -5 12 2 6 6 9 14 7 17 -3 3
-9 2 -12 -2z"/>
<path d="M6320 3410 c0 -5 10 -10 23 -10 18 0 19 2 7 10 -19 13 -30 13 -30 0z"/>
<path d="M6570 3405 c7 -8 16 -15 21 -15 5 0 9 7 9 15 0 9 -9 15 -21 15 -18 0
-19 -2 -9 -15z"/>
<path d="M5030 3362 c0 -8 -8 -16 -18 -19 -10 -2 -24 -13 -31 -24 -11 -18 -9
-21 8 -26 24 -6 27 -26 6 -46 -17 -17 -10 -28 12 -20 9 4 22 -2 29 -12 13 -18
14 -18 14 3 0 20 3 21 21 11 17 -9 20 -18 17 -52 -3 -23 -8 -49 -12 -58 -5
-12 -1 -18 13 -22 16 -4 21 0 21 13 0 18 19 39 21 23 8 -79 16 -94 50 -91 32
2 42 11 52 43 7 19 6 19 -7 3 -19 -26 -36 -22 -36 7 0 14 5 25 10 25 19 0 10
43 -14 65 -18 17 -21 26 -14 39 7 13 5 21 -9 31 -13 10 -19 10 -23 2 -7 -16
-50 -20 -50 -4 0 6 6 23 13 37 9 17 11 35 5 57 -7 28 -12 31 -43 30 -22 -1
-35 -7 -35 -15z m101 -165 c-10 -9 -11 -8 -5 6 3 10 9 15 12 12 3 -3 0 -11 -7
-18z"/>
<path d="M6390 3315 c-7 -9 -11 -18 -8 -21 7 -7 58 17 58 28 0 14 -37 9 -50
-7z"/>
<path d="M3115 3240 c3 -5 11 -10 16 -10 6 0 7 5 4 10 -3 6 -11 10 -16 10 -6
0 -7 -4 -4 -10z"/>
<path d="M4800 3235 c-1 -5 -3 -18 -5 -27 -4 -23 13 -34 28 -19 9 9 9 14 1 19
-6 4 -14 14 -17 22 -3 8 -6 11 -7 5z"/>
<path d="M4652 3201 c-9 -5 -5 -11 13 -19 26 -12 34 -2 12 16 -7 6 -18 7 -25
3z"/>
<path d="M4722 3180 c-7 -12 -10 -26 -6 -32 6 -10 33 25 34 45 0 14 -15 7 -28
-13z"/>
<path d="M5380 3189 c0 -5 5 -7 10 -4 6 3 10 8 10 11 0 2 -4 4 -10 4 -5 0 -10
-5 -10 -11z"/>
<path d="M4771 3174 c0 -11 3 -14 6 -6 3 7 2 16 -1 19 -3 4 -6 -2 -5 -13z"/>
<path d="M4790 3151 c0 -5 5 -13 10 -16 6 -3 10 -2 10 4 0 5 -4 13 -10 16 -5
3 -10 2 -10 -4z"/>
<path d="M5415 3121 c14 -14 32 -17 37 -7 1 5 -8 11 -22 13 -16 2 -21 0 -15
-6z"/>
<path d="M3210 3100 c-13 -8 -12 -10 3 -10 9 0 17 5 17 10 0 12 -1 12 -20 0z"/>
<path d="M4525 3090 c3 -5 8 -10 11 -10 2 0 4 5 4 10 0 6 -5 10 -11 10 -5 0
-7 -4 -4 -10z"/>
<path d="M4442 3078 c-7 -7 -12 -16 -12 -20 0 -12 28 -10 36 3 10 17 -10 31
-24 17z"/>
<path d="M4186 3004 c-8 -22 -9 -21 19 -26 14 -3 28 -1 31 3 3 5 1 9 -5 9 -5
0 -16 7 -24 15 -13 13 -16 13 -21 -1z"/>
<path d="M4366 3011 c-4 -7 -5 -15 -2 -18 9 -9 19 4 14 18 -4 11 -6 11 -12 0z"/>
<path d="M4270 2979 c0 -16 -4 -20 -17 -14 -14 5 -15 3 -7 -5 9 -9 17 -9 33
-1 24 13 28 41 6 41 -9 0 -15 -9 -15 -21z"/>
<path d="M4933 2960 c-15 -6 -20 -15 -16 -29 7 -26 8 -26 51 1 31 19 33 22 16
29 -24 10 -25 10 -51 -1z"/>
<path d="M4806 2925 l-29 -25 31 0 c37 0 71 28 50 41 -18 12 -20 12 -52 -16z"/>
<path d="M3764 2926 c-3 -8 -4 -23 -1 -33 3 -12 5 -9 6 9 0 14 7 29 14 31 9 4
9 6 -1 6 -7 1 -15 -5 -18 -13z"/>
<path d="M4246 2924 c-9 -23 -3 -26 28 -14 15 5 24 14 21 20 -10 16 -42 12
-49 -6z"/>
<path d="M3938 2922 c-10 -2 -18 -8 -18 -13 0 -11 11 -11 30 1 18 11 11 18
-12 12z"/>
<path d="M4010 2920 c20 -13 33 -13 25 0 -3 6 -14 10 -23 10 -15 0 -15 -2 -2
-10z"/>
<path d="M3770 2860 c0 -5 5 -10 10 -10 6 0 10 5 10 10 0 6 -4 10 -10 10 -5 0
-10 -4 -10 -10z"/>
<path d="M5170 2840 c0 -5 4 -10 9 -10 5 0 12 -8 14 -17 3 -11 5 -7 6 10 1 18
-4 27 -14 27 -8 0 -15 -4 -15 -10z"/>
<path d="M3761 2824 c0 -11 3 -14 6 -6 3 7 2 16 -1 19 -3 4 -6 -2 -5 -13z"/>
<path d="M3735 2791 c-6 -11 9 -23 19 -14 9 9 7 23 -3 23 -6 0 -12 -4 -16 -9z"/>
<path d="M2946 2705 c-3 -8 -1 -15 4 -15 6 0 10 7 10 15 0 8 -2 15 -4 15 -2 0
-6 -7 -10 -15z"/>
<path d="M3587 2655 c-4 -9 -1 -15 8 -15 9 0 15 -10 15 -25 0 -14 5 -25 10
-25 6 0 10 9 10 20 0 11 1 23 3 26 1 4 -8 13 -19 21 -19 12 -22 12 -27 -2z"/>
<path d="M3000 2470 c0 -5 5 -10 10 -10 6 0 10 5 10 10 0 6 -4 10 -10 10 -5 0
-10 -4 -10 -10z"/>
<path d="M3040 2439 c0 -5 5 -7 10 -4 6 3 10 8 10 11 0 2 -4 4 -10 4 -5 0 -10
-5 -10 -11z"/>
<path d="M3160 2381 c0 -12 29 -35 36 -28 11 10 -5 37 -21 37 -8 0 -15 -4 -15
-9z"/>
<path d="M3260 2192 c0 -5 7 -13 16 -16 10 -4 14 -1 12 6 -5 15 -28 23 -28 10z"/>
<path d="M3360 2179 c0 -5 5 -7 10 -4 6 3 10 8 10 11 0 2 -4 4 -10 4 -5 0 -10
-5 -10 -11z"/>
<path d="M3306 2142 c-3 -6 -1 -14 5 -17 15 -10 25 3 12 16 -7 7 -13 7 -17 1z"/>
<path d="M2036 4705 c-8 -22 2 -41 29 -53 36 -16 38 0 5 36 -21 24 -29 28 -34
17z"/>
<path d="M3830 5190 c-13 -8 -12 -10 3 -10 9 0 17 5 17 10 0 12 -1 12 -20 0z"/>
<path d="M8637 2954 c6 -16 19 -18 27 -5 3 5 -3 11 -13 14 -14 3 -18 1 -14 -9z"/>
<path d="M8695 2950 c3 -5 10 -10 16 -10 5 0 9 5 9 10 0 6 -7 10 -16 10 -8 0
-12 -4 -9 -10z"/>
<path d="M5727 2459 c17 -19 29 -26 32 -18 2 7 -6 21 -19 31 -35 28 -43 21
-13 -13z"/>
<path d="M5776 2471 c-4 -7 -5 -15 -2 -18 9 -9 19 4 14 18 -4 11 -6 11 -12 0z"/>
<path d="M5646 2444 c-11 -28 -6 -44 13 -44 25 0 33 34 11 48 -14 9 -20 8 -24
-4z"/>
<path d="M4050 2220 c0 -5 5 -10 10 -10 6 0 10 5 10 10 0 6 -4 10 -10 10 -5 0
-10 -4 -10 -10z"/>
<path d="M4085 1750 c3 -5 17 -10 31 -10 13 0 24 5 24 10 0 6 -14 10 -31 10
-17 0 -28 -4 -24 -10z"/>
<path d="M5595 1559 c-4 -11 -4 -23 -1 -26 3 -4 6 1 6 10 0 8 5 17 12 19 9 3
9 6 1 11 -7 4 -14 -1 -18 -14z"/>
<path d="M4125 1520 c3 -5 11 -10 16 -10 6 0 7 5 4 10 -3 6 -11 10 -16 10 -6
0 -7 -4 -4 -10z"/>
<path d="M4795 1450 c-3 -6 1 -7 9 -4 18 7 21 14 7 14 -6 0 -13 -4 -16 -10z"/>
<path d="M4380 1390 c0 -5 5 -10 10 -10 6 0 10 5 10 10 0 6 -4 10 -10 10 -5 0
-10 -4 -10 -10z"/>
<path d="M4619 1369 c-10 -6 -7 -9 14 -9 29 0 35 5 14 13 -8 3 -20 1 -28 -4z"/>
<path d="M4370 1360 c0 -5 5 -10 11 -10 5 0 7 5 4 10 -3 6 -8 10 -11 10 -2 0
-4 -4 -4 -10z"/>
<path d="M4548 1348 c9 -9 15 -9 24 0 9 9 7 12 -12 12 -19 0 -21 -3 -12 -12z"/>
</g>
</svg>
